<svg xmlns="http://www.w3.org/2000/svg" xmlns:xlink="http://www.w3.org/1999/xlink" viewBox="0 0 1432.67 1024.5"><defs><style>.cls-1{fill:url(#linear-gradient);}.cls-2{fill:url(#linear-gradient-2);}.cls-3{opacity:0.4;fill:url(#linear-gradient-3);}.cls-4{fill:#fff;}.cls-5{fill:#050505;}.cls-6{fill:#e3356f;}.cls-7{fill:#0895be;}.cls-8{fill:#0994bc;}.cls-9{fill:#fcb9c0;}.cls-10{fill:#173a49;}.cls-11{fill:url(#linear-gradient-4);}.cls-12{opacity:0.1;}.cls-13{fill:#bbc6eb;}.cls-14{fill:url(#linear-gradient-5);}.cls-15{fill:#0c2f3d;}.cls-16{fill:#002951;}.cls-17{fill:#ffaaad;}.cls-18{fill:#123245;}.cls-19{fill:url(#linear-gradient-6);}.cls-20{fill:url(#linear-gradient-7);}.cls-21{fill:url(#linear-gradient-8);}.cls-22{fill:#143847;}.cls-23{fill:url(#linear-gradient-9);}.cls-24{fill:#f49fa6;}.cls-25{fill:#a0a0a0;}.cls-26{fill:url(#linear-gradient-10);}.cls-27{fill:url(#linear-gradient-11);}.cls-28{fill:url(#linear-gradient-12);}.cls-29{fill:url(#linear-gradient-13);}.cls-30{fill:url(#linear-gradient-14);}.cls-31{fill:url(#linear-gradient-15);}</style><linearGradient id="linear-gradient" x1="721.25" y1="1036.91" x2="717.25" y2="376.91" gradientUnits="userSpaceOnUse"><stop offset="0" stop-color="#d3e9fe"/><stop offset="1" stop-color="#e9f6ff"/></linearGradient><linearGradient id="linear-gradient-2" x1="293.67" y1="276" x2="1095.19" y2="276" gradientUnits="userSpaceOnUse"><stop offset="0" stop-color="#588afd"/><stop offset="1" stop-color="#4d71d9"/></linearGradient><linearGradient id="linear-gradient-3" x1="331.67" y1="310" x2="1133.19" y2="310" xlink:href="#linear-gradient-2"/><linearGradient id="linear-gradient-4" x1="181.79" y1="395.28" x2="249.84" y2="395.28" gradientUnits="userSpaceOnUse"><stop offset="0" stop-color="#dce9ff"/><stop offset="1" stop-color="#b6d2ff"/></linearGradient><linearGradient id="linear-gradient-5" x1="308.17" y1="365.72" x2="314.17" y2="818.77" xlink:href="#linear-gradient-4"/><linearGradient id="linear-gradient-6" x1="1170.42" y1="696.67" x2="1176.42" y2="978.61" gradientUnits="userSpaceOnUse"><stop offset="0" stop-color="#29056b"/><stop offset="1" stop-color="#6c93f5"/></linearGradient><linearGradient id="linear-gradient-7" x1="1149.17" y1="456.11" x2="1165.17" y2="232.11" gradientUnits="userSpaceOnUse"><stop offset="0" stop-color="#e3356f"/><stop offset="1" stop-color="#e882ac"/></linearGradient><linearGradient id="linear-gradient-8" x1="1108.66" y1="320.92" x2="1127.11" y2="788.34" xlink:href="#linear-gradient-4"/><linearGradient id="linear-gradient-9" x1="1258.17" y1="433.25" x2="1340.17" y2="433.25" xlink:href="#linear-gradient-4"/><linearGradient id="linear-gradient-10" x1="128.55" y1="734.32" x2="202.85" y2="540.79" gradientUnits="userSpaceOnUse"><stop offset="0" stop-color="#1c59eb"/><stop offset="1" stop-color="#6af2ed"/></linearGradient><linearGradient id="linear-gradient-11" x1="159.29" y1="718.91" x2="300.7" y2="718.91" xlink:href="#linear-gradient-10"/><linearGradient id="linear-gradient-12" x1="104.02" y1="765.48" x2="11.04" y2="669.06" xlink:href="#linear-gradient-10"/><linearGradient id="linear-gradient-13" x1="74.09" y1="820.81" x2="-8.98" y2="806.97" xlink:href="#linear-gradient-10"/><linearGradient id="linear-gradient-14" x1="145.91" y1="822.11" x2="231.59" y2="822.11" xlink:href="#linear-gradient-10"/><linearGradient id="linear-gradient-15" x1="71.14" y1="952.77" x2="190.15" y2="952.77" xlink:href="#linear-gradient-7"/></defs><g id="圖層_2" data-name="圖層 2"><g id="_6" data-name="6"><g id="Background"><path class="cls-1" d="M9.67,1024h1423s-41-230-199-224-62.89-167.32-74-284c-14-147-386.57-314.49-519,3-78,187-179,143-255,124-43.06-10.76-112,35-101,146,17.51,176.69-41,189-123,171S9.67,1024,9.67,1024Z"/></g><g id="Screen"><polyline class="cls-2" points="293.67 0 1095.19 0 1095.19 552 293.67 552 293.67 18.85"/><polyline class="cls-3" points="331.67 34 1133.19 34 1133.19 586 331.67 586 331.67 52.85"/><path class="cls-4" d="M792.93,291.39c1.1-16.59-17.7-76.32-17.7-76.32-2.21-10-3.32-57.52-3.32-57.52,0-17.7-12.17-18.8-12.17-18.8a214.46,214.46,0,0,1-31-8.85c-12.17-8.85-2.21-26.55-2.21-26.55,10-11.06,3.87-14.93,3.87-14.93,3.46-25.11-12.73-29.89-19.92-30.78v-.19s-.63,0-1.66,0-1.65,0-1.65,0v.19c-7.19.89-23.39,5.67-19.92,30.78,0,0-6.09,3.87,3.87,14.93,0,0,10,17.7-2.21,26.55a214.46,214.46,0,0,1-31,8.85s-12.17,1.1-12.17,18.8c0,0-1.11,47.56-3.32,57.52,0,0-18.8,59.73-17.7,76.32,0,0-11.06,21-3.32,35.4,0,0,4.43,5.53,6.64,4.42,0,0,2.21-1.11,1.11-7.74,0,0-1.11-17.7,6.63-23.23l-1.1,15.48s11.06-3.31,6.63-23.22c0,0,0-4.43,2.22-13.28,0,0,17.69-24.33,17.69-49.77l6.64-14.38,2.21,56.41s-21,33.18,3.32,133.84c0,0-4.42,56.41,8.85,83,0,0,1.11,18.8-3.32,29.86,0,0-4.42,10,7.75,12.17h16a3.86,3.86,0,0,0,3.86-4.16c-.42-5.26-2.15-15.06-8.76-26.81,0,0-1.11-16.59-1.11-31,0,0,2.21-28.76,0-39.82,0,0-2.21-11.06,0-19.91l12.17-85.17v0L721,408.64c2.21,8.85,0,19.91,0,19.91-2.21,11.06,0,39.82,0,39.82,0,14.38-1.11,31-1.11,31-6.61,11.75-8.34,21.55-8.76,26.81a3.86,3.86,0,0,0,3.86,4.16h16c12.17-2.21,7.75-12.17,7.75-12.17-4.43-11.06-3.32-29.86-3.32-29.86,13.27-26.55,8.85-83,8.85-83,24.33-100.66,3.32-133.84,3.32-133.84l2.21-56.41,6.63,14.38c0,25.44,17.7,49.77,17.7,49.77,2.21,8.85,2.21,13.28,2.21,13.28-4.42,19.91,6.64,23.22,6.64,23.22l-1.1-15.48c7.74,5.53,6.63,23.23,6.63,23.23-1.1,6.63,1.11,7.74,1.11,7.74,2.21,1.11,6.63-4.42,6.63-4.42C804,312.41,792.93,291.39,792.93,291.39Z"/><polygon class="cls-5" points="758.33 97.09 732.58 97.09 732.58 94.09 757.09 94.09 814.53 36.65 834.9 36.65 834.9 39.65 815.77 39.65 758.33 97.09"/><polygon class="cls-5" points="683.49 204.19 657.74 204.19 600.3 146.74 581.17 146.74 581.17 143.74 601.54 143.74 658.98 201.19 683.49 201.19 683.49 204.19"/><polygon class="cls-5" points="796.92 191.33 771.17 191.33 771.17 188.33 795.68 188.33 853.13 130.89 873.49 130.89 873.49 133.89 854.37 133.89 796.92 191.33"/><path class="cls-6" d="M893.83,6h-.39V31.66h26.47A26.08,26.08,0,0,0,893.83,6Z"/><path class="cls-4" d="M887.41,37.25V7.64A30.07,30.07,0,1,0,917.92,37.7c0-.15,0-.3,0-.45Z"/><rect class="cls-4" x="887.41" y="118.93" width="123.41" height="58.23"/><rect class="cls-6" x="893.73" y="123.99" width="61.39" height="27.85"/><rect class="cls-6" x="893.73" y="154.69" width="61.39" height="4.75"/><rect class="cls-6" x="893.73" y="162.28" width="32.59" height="4.75"/><rect class="cls-7" x="979.49" y="162.28" width="26.58" height="4.75"/><rect class="cls-7" x="963.67" y="162.28" width="10.76" height="4.75"/><rect class="cls-7" x="963.67" y="123.99" width="42.09" height="27.85"/><rect class="cls-4" x="409.05" y="97.81" width="150.31" height="95.59"/><rect class="cls-6" x="424.62" y="145.64" width="9.23" height="27.03"/><rect class="cls-6" x="439.79" y="126.2" width="9.23" height="46.48"/><rect class="cls-6" x="454.95" y="145.31" width="9.23" height="27.36"/><rect class="cls-8" x="486.59" y="118.61" width="56.69" height="54.06"/><rect class="cls-4" x="493.19" y="126.53" width="43.51" height="5.93"/><rect class="cls-4" x="493.19" y="136.41" width="43.51" height="5.93"/><rect class="cls-4" x="493.19" y="145.64" width="43.51" height="5.93"/><rect class="cls-4" x="514.61" y="154.87" width="22.08" height="5.93"/><path class="cls-4" d="M603.84,474.78H507.49v-134h96.35Zm-93.35-3h90.35v-128H510.49Z"/><rect class="cls-4" x="546.59" y="357.49" width="17.95" height="3.59"/><rect class="cls-4" x="525.49" y="366.92" width="61.03" height="3.59"/><rect class="cls-4" x="525.49" y="376.34" width="61.03" height="3.59"/><rect class="cls-4" x="525.49" y="386.21" width="61.03" height="3.59"/><rect class="cls-4" x="525.49" y="396.09" width="61.03" height="3.59"/><rect class="cls-4" x="525.49" y="405.96" width="61.03" height="3.59"/><rect class="cls-4" x="525.49" y="415.83" width="61.03" height="3.59"/><rect class="cls-4" x="525.49" y="425.71" width="61.03" height="3.59"/><path class="cls-4" d="M874.28,461.2l-36.34-21v-42l36.34-21,36.34,21v42Zm-33.34-22.72,33.34,19.25,33.34-19.25V400l-33.34-19.25L840.94,400Z"/><path class="cls-4" d="M839.51,521.2l-36.34-21v-42l36.34-21,36.34,21v42Zm-33.34-22.72,33.34,19.25,33.34-19.25V460l-33.34-19.25L806.17,460Z"/><rect class="cls-4" x="861.85" y="412.19" width="22" height="4.4"/><rect class="cls-4" x="861.85" y="420.99" width="22" height="4.4"/><rect class="cls-4" x="827.2" y="468.69" width="22" height="4.4"/><rect class="cls-4" x="827.2" y="477.49" width="22" height="4.4"/><rect class="cls-4" x="827.2" y="486.29" width="22" height="4.4"/></g><g id="Doctor"><path class="cls-9" d="M252.82,841.77c-15.48,67.18-30.7,134.68-31.51,143.87-.56,6.28,25.57,19.18,25.57,19.18l-60.1-1.28L206,839.18,222.46,699h63.62S269.3,770.21,252.82,841.77Z"/><path class="cls-10" d="M185.29,988.54l-3.52,24.12a9.91,9.91,0,0,0,9.81,11.34h86.26a2.18,2.18,0,0,0,1-4.12l-39.05-19.53a2.23,2.23,0,0,0-1.32-.2c-5.21.88-38.67,5.73-49.11-12.38A2.18,2.18,0,0,0,185.29,988.54Z"/><path class="cls-9" d="M355.88,1004.82l-60.1-1.28,2.55-165.63L300.46,699h63.62s-7.6,63.36-15.58,130.61c-8.45,71-17.33,146.29-18.19,156C329.75,991.92,355.88,1004.82,355.88,1004.82Z"/><path class="cls-10" d="M294.29,988.54l-3.52,24.12a9.91,9.91,0,0,0,9.81,11.34h86.26a2.18,2.18,0,0,0,1-4.12l-39.05-19.53a2.23,2.23,0,0,0-1.32-.2c-5.21.88-38.67,5.73-49.11-12.38A2.18,2.18,0,0,0,294.29,988.54Z"/><path class="cls-11" d="M224.12,421l13.47,33.06-15.91,61.22L183.3,422.72a19.9,19.9,0,0,1,.18-15.64l39.91-90.45,18.25-41.35,8.2,109-13.36,19.08Z"/><path class="cls-12" d="M364.08,699s-7.6,63.36-15.58,130.61c-12.19,3.78-31.24,8.48-50.17,8.3L300.46,699Z"/><path class="cls-12" d="M286.08,699s-16.78,71.21-33.26,142.77A249.81,249.81,0,0,1,206,839.18L222.46,699Z"/><path class="cls-12" d="M249.84,384.25l-13.36,19.08c-15.71-30.24-16.69-61.54-13.09-86.7l18.25-41.35Z"/><path class="cls-9" d="M508.48,212.77l-4.93,12.6-9.49,15.41-4.61,11.54-4.87,12.18-26.09-13,1-3.05.76-2.29,2.37-9.49a113.32,113.32,0,0,1,2.37-24.9l2.16-23.23s10,8,7.55,17.9l13.42-27.27,10-15.63s6,6-.55,18l-4.56,14.67s7.12-1.19,7.12,4.74c0,0,5.93,1.19,4.74,5.93C504.92,206.84,509.67,208,508.48,212.77Z"/><polygon class="cls-12" points="489.45 252.32 484.58 264.5 458.49 251.46 459.51 248.41 489.45 252.32"/><path class="cls-9" d="M311.29,148.53s45,85.14-18.92,78.56L297,286.15l-43.92,4.54L245.2,198.1S234.87,136.42,311.29,148.53Z"/><path class="cls-13" d="M331.87,275.28s-18.36-28.16-60-28.16c0,0-18-.13-28,6.67,0,0-3.86,9.24,2.26,21.49Z"/><path class="cls-14" d="M494.72,264.26,478.3,350.49a15.87,15.87,0,0,1-19.55,12.4L356.36,336.5V471.19L400.44,810.5s-140.81,41.63-274.27,0c0,0,85.71-305,115.1-417.68,0,0-30.61-80.81-2.45-115.09,0,0,15.92-18.37,67.34-13.47,35.56,3.39,135.91,44.08,135.91,44.08l12.25-61.22Z"/><path class="cls-15" d="M321.51,516l-1.32-1.5c29.72-26.16,20.63-55,20.53-55.26l1.9-.63C342.72,458.93,352.27,489,321.51,516Z"/><path class="cls-15" d="M287.36,127.65c-80.62-15.64-66.94,89.67-66.94,89.67-37.59,14.87-46.8,39.31-49.75,52.68-3.75,17,14.13,53.35,59.52,47.91,40.52-4.86,37.25-65.42,36.09-78.36,2.57,12.37,6.14,39.94-6.61,62.45,0,0,16.76-18.76,11.6-68,24.43-15.93,18.79-33.91,18.79-33.91s-14.09-14.73-4.65-22.53c6.63-5.48,9.53-.68,10.68,2.67a5.16,5.16,0,0,0,3.68,3.31l1.08.25a1.93,1.93,0,0,0,2.33-2.31l-1.77-7.62c7.68-5.71,10.54-17.62,10.54-17.62s16.67,4,16.5-16.18S289.06,128,287.36,127.65Z"/><path class="cls-12" d="M356.36,337.05v120c-5.17-24.5-12.06-64.39-18.69-125.09Z"/></g><g id="Doctor-2" data-name="Doctor"><path class="cls-16" d="M1188.7,146.78s-2.09,12.54-4.18,20.89-10.44,6.27-10.44,6.27L1172,153.05Z"/><path class="cls-17" d="M1193.19,246h-51.85c-2.13-22.29-1.28-23-2.27-36.75-.27-3.59-.65-8.06-1.26-14a2,2,0,0,0,0-.23c-41.39,13.85-28.58-75.42-28.58-75.42s7.06-22.94,41.42-28.28,32.55,39.52,32.55,39.52c20.47,2.89-1,29-2.29,31.17Z"/><path class="cls-15" d="M1179.49,80.92s-25.2-31.4-68.73,9.58c-3.85,3.63-8,3.5-16.85,8.77a11.48,11.48,0,0,0,.43,20c11.73,6.26,25.62,9.05,52-5.57-11,12.71-30.89,14.25-30.89,14.25,39.8-.14,46.18-16.84,46.66-17.17,0,0-2.32,18.26,10.9,31.07,0,0,.35-4.46,3.26-7.24,3.72-3.56,10.57-5.08,14.93,1.46C1191.23,136,1209.33,88.59,1179.49,80.92Z"/><path class="cls-18" d="M1171.64,135.16h-17.55a12.69,12.69,0,0,0-24,4.57h-7a12.72,12.72,0,1,0,0,2.31h7a12.7,12.7,0,1,0,24.87-4.57h16.65Zm-61.22,16.13a10.4,10.4,0,1,1,10.4-10.4A10.41,10.41,0,0,1,1110.42,151.29Zm32.34,0a10.4,10.4,0,1,1,10.4-10.4A10.41,10.41,0,0,1,1142.76,151.29Z"/><polygon class="cls-17" points="1131.17 955.5 1131.17 998.5 1088.17 996.5 1090 980.01 1093.17 951.5 1131.17 955.5"/><polygon class="cls-17" points="1264.17 996.5 1222.17 996.5 1222.17 951.5 1262.17 955.5 1262.67 965.74 1264.17 996.5"/><polygon class="cls-12" points="1131.17 955.5 1131.17 970.56 1090 980.01 1093.17 951.5 1131.17 955.5"/><path class="cls-12" d="M1262.67,965.74c-13.84,3.44-31.64,7.86-40.5,10V951.5l40,4Z"/><polygon class="cls-19" points="1271.17 964.5 1255.17 629.5 1250.17 508.5 1084.17 520.5 1084.17 629.5 1084.17 713.5 1081.17 969.5 1137.17 969.5 1163.82 641.66 1217.17 964.5 1271.17 964.5"/><path class="cls-17" d="M934.19,305.52,916.82,325.2l-12.33-8.95-3.85.35-9.65.86c-13.32,2.54-39.72-8.15-43.41-12.67-3.91-4.79,2.59-7.36,2.59-7.36l-13.09-6a4.89,4.89,0,0,1-2.42-2.39c-2.21-4.86,4.57-6.09,4.57-6.09l-8.3-5.31a4.82,4.82,0,0,1-1.9-2.28c-1-2.55-.33-4.27.71-5.38a4.75,4.75,0,0,1,5-1.09l5.37,1.89c-1.41-2.36-.88-3.93.12-4.93a4.27,4.27,0,0,1,4.75-.79c10.06,4.47,59.08,25.87,47.25,13-.25-.26-.48-.52-.71-.78-12.23-13.8-5.93-22-5.93-22l20.87,21.31A47.31,47.31,0,0,1,921,298.58c.15.48.21.74.21.74Z"/><path class="cls-12" d="M934.19,305.52,916.82,325.2l-12.33-8.95-3.85.35,20.32-18c.15.48.21.74.21.74Z"/><path class="cls-20" d="M1143.67,452l52.89-238.66-1-2.4s-11.91,26.62-37.89,28.06c-18,1-21.44-22.49-21.44-22.49l1,26.49s-.41,52.87.78,70.5C1139.43,334.37,1143.67,452,1143.67,452Z"/><path class="cls-21" d="M1137.23,215.69l-71.85,37.5a27.16,27.16,0,0,0-12.86,14.54L1021.67,350l-96-60-26,48,124.54,94.06a20.36,20.36,0,0,0,29.94-6.15l15.63-27.36L1052.17,777s25.5,15,50.5,19c26.82,4.29,44,0,44,0l6.5-243,50.08,240a224.81,224.81,0,0,0,48.42-2c17.24-2.76,42.5-14,42.5-14l-43-410,23.07,59.61,48-7.94-45.36-157.55a21.07,21.07,0,0,0-10-12.58L1188.67,205s-18.5,75.54-24,100.71c-4.12,18.84-19,125.29-19,125.29s-7-99-8.16-123.57C1136.42,284.2,1137.23,215.69,1137.23,215.69Z"/><path class="cls-22" d="M1089.17,986.5s22,23,42-5l7,43h-104.4a4.38,4.38,0,0,1-2.16-8.19Z"/><path class="cls-22" d="M1222.17,986.5s22,23,42-5l7,43h-104.4a4.38,4.38,0,0,1-2.16-8.19Z"/><path class="cls-22" d="M1154.05,241.86l-9.38-6.86-17,20s-6-35.93,9.51-45.46L1154.67,238s28-9,34-33c0,0,11,27-6.36,50l-15.64-17.59Z"/><path class="cls-23" d="M1340.17,400.5s-7,90-57,59c-9.91-6.15-22-29-25-51Z"/><path class="cls-24" d="M1338.17,400.5s-5.47,25-26.24,13.5l7.24-13.5Z"/><circle class="cls-25" cx="1249.87" cy="359.38" r="11.63"/><circle class="cls-18" cx="1249.87" cy="359.38" r="6.39"/><path class="cls-18" d="M1252.24,358.06l-4-.12c2-73.77-14.9-110.7-29.47-128.69-15.52-19.15-31.44-21.26-31.6-21.28l.48-4c.71.09,17.7,2.34,34.23,22.74C1236.89,245.25,1254.33,283.06,1252.24,358.06Z"/><polygon class="cls-22" points="1215.67 414 1325.67 414 1360.67 260 1250.67 260 1215.67 414"/><path class="cls-17" d="M1350.15,362.7c2.62,1.94,6.13,6.11-1,11.8,0,0,5,6-1,11,0,0,5,6-2,11,0,0,1,5-5,7h-21.23a3,3,0,0,1-2.83-1.87,4.56,4.56,0,0,1,2.06-6.13s-4-7,2-10c0,0-5-6,1-9,0,0-4-5,3-8,5.52-2.37,16.64-5.35,21.09-6.51A4.6,4.6,0,0,1,1350.15,362.7Z"/><path class="cls-25" d="M1108.8,390.34l12.94-3.93a11.49,11.49,0,0,0,7.81-13.68l-10.68-44-3.83.93,10.68,44a7.54,7.54,0,0,1-5.13,9l-12.94,3.93Z"/><path class="cls-25" d="M1086.27,393.62l-13.52-.09a11.47,11.47,0,0,1-11.38-10.88l-2.31-45.26,3.93-.2,2.31,45.26a7.53,7.53,0,0,0,7.47,7.14l13.52.09Z"/><rect class="cls-18" x="1102.04" y="384.92" width="10.7" height="7.32" rx="3.66" transform="translate(-63.75 312.85) rotate(-15.64)"/><rect class="cls-18" x="1081.77" y="387.87" width="10.7" height="7.32" rx="3.66" transform="matrix(1, -0.02, 0.02, 1, -6.11, 17.39)"/><path class="cls-18" d="M1113.21,313.77c-6.58-10.91-15.34-16.52-25.39-16.32-1-29.54,6.72-52.44,22.31-66.4,12.3-11,25.35-12.71,25.48-12.73l-.24-2-.23-2c-.58.07-14.27,1.81-27.5,13.56-11.72,10.41-25.14,30.93-23.82,69.91a27.34,27.34,0,0,0-17.06,10.05c-5.69,7.16-8.56,17.43-8.54,30.53a1.47,1.47,0,0,0,1.5,1.47l2.69-.05a1.47,1.47,0,0,0,1.44-1.47c0-30,15.8-34.63,22.7-35.21,18.38-1.57,26.25,21.84,27.94,27.77a1.48,1.48,0,0,0,1.75,1l2.63-.61a1.47,1.47,0,0,0,1.08-1.83A66.39,66.39,0,0,0,1113.21,313.77Z"/><path class="cls-15" d="M1147.51,428l-2,0c0-1.4,1.24-140.61,8.62-188.62l2,.3C1148.75,287.53,1147.53,426.59,1147.51,428Z"/><circle class="cls-15" cx="1147.66" cy="249.98" r="2"/><circle class="cls-15" cx="1146.27" cy="275.96" r="2"/><circle class="cls-15" cx="1144.9" cy="300.95" r="2"/><path class="cls-15" d="M1212.85,245.49l-.22-.76c-.16-.58-4.08-14.21-8.52-22.22s-14.22-16.89-14.63-17.26l-1.34,1.48c.1.09,9.9,8.93,14.22,16.75,3.74,6.76,7.23,18,8.12,21l-26.09,14.61,20,8.41c-3.25,7.86-26.28,63.72-33.37,83.12-6.2,16.95-20.92,63.12-25.14,76.42l-33-156.51,18.87-8.88-22.94-5.46c.35-3.25,2-15.23,8.31-23.19,7-8.78,14.26-16.27,14.33-16.34l-1.43-1.4c-.07.08-7.44,7.63-14.47,16.5-7.7,9.71-8.77,24.51-8.81,25.13l-.06.85,19.05,4.53-15.13,7.12,34.18,161.85c.27,8.69,2,61.53,7.58,129.82l2-.16c-5.56-68.71-7.33-121.76-7.58-129.89,1.33-4.2,19.19-60.6,26.18-79.71,7.58-20.74,33.45-83.33,33.71-84l.38-.92-18-7.59Z"/><rect class="cls-15" x="1022.2" y="327.11" width="2" height="48.95" transform="matrix(0.55, -0.84, 0.84, 0.55, 168.2, 1014.55)"/><path class="cls-15" d="M1243.65,550c-49.2-1-60.84-46.3-61-46.76l1.94-.48c.11.45,11.41,44.27,59,45.24Z"/><path class="cls-15" d="M1074.08,561.91l-.82-1.82c32.09-14.59,37.37-52.83,37.42-53.22l2,.26C1112.61,507.52,1107.21,546.85,1074.08,561.91Z"/><path class="cls-15" d="M875.5,287c-12-2-35.32-14.58-36.31-15.11l1-1.76c.23.13,24,12.94,35.68,14.89Z"/><path class="cls-15" d="M874.43,296c-8-2-35.54-12.34-36.71-12.78l.71-1.87c.28.11,28.63,10.75,36.48,12.71Z"/><path class="cls-15" d="M873.5,305c-6-1-22.47-6.8-23.16-7.05l.66-1.88c.17.06,17,6,22.83,6.95Z"/><rect class="cls-15" x="1321.66" y="374.5" width="27.02" height="2" transform="translate(-13.02 49.82) rotate(-2.13)"/><rect class="cls-15" x="1333.17" y="371.99" width="2" height="27.02" transform="translate(899.55 1704.49) rotate(-87.88)"/><rect class="cls-15" x="1331.17" y="381.99" width="2" height="27.02" transform="translate(887.63 1712.12) rotate(-87.88)"/><path class="cls-12" d="M1168.66,174c-10,22-22,31.32-29.59,35.24-.27-3.59-.65-8.06-1.26-14A74.85,74.85,0,0,0,1168.66,174Z"/></g><g id="Plant"><path class="cls-26" d="M128.63,769.74S91.57,524.5,210.58,557C210.58,557,269.28,584,128.63,769.74Z"/><path class="cls-27" d="M159.29,769.74S216,634.5,298.94,676C298.94,676,327,708.43,159.29,769.74Z"/><path class="cls-28" d="M104.61,775.65S-1,712.17,12.39,677.48C12.39,677.48,51.57,634.75,104.61,775.65Z"/><path class="cls-29" d="M87.08,824.87S4.48,778.69,0,809.5C0,809.5-2.82,834.84,87.08,824.87Z"/><path class="cls-30" d="M146.26,857c-4.69,2,38-88.88,82.39-66.17C228.65,790.83,255.59,810.32,146.26,857Z"/><path class="cls-15" d="M126.63,882.38l-3.6-.14c.6-14.69-4.06-27.44-13.84-37.92-28.45-30.48-91.25-32.57-91.88-32.59l.1-3.6c2.64.07,65,2.16,94.42,33.73C122.29,853.07,127.27,866.7,126.63,882.38Z"/><path class="cls-15" d="M130.37,903.05l-3.6-.14c1-25,17.3-51.47,47.25-76.5a274.63,274.63,0,0,1,45.22-30.48l1.65,3.21C220,799.59,132.6,844.9,130.37,903.05Z"/><path class="cls-15" d="M132.36,893.55c-5.82-36.14-1.69-69.76,12.28-99.91,11.17-24.1,28.6-46,51.82-65.19,39.44-32.53,82.59-46,83-46.09l1,3.45c-.42.13-43,13.39-81.87,45.5C162.92,760.82,123,812.83,135.92,893Z"/><path class="cls-15" d="M135.8,918.94c-10.33-41.72-13.9-85.78-10.62-130.93A502.1,502.1,0,0,1,146,678.38c19-62.39,43.89-103,44.14-103.43l3.07,1.89c-.25.4-24.93,40.72-43.8,102.7C132,736.67,116.12,824.44,139.3,918.08Z"/><path class="cls-15" d="M129.54,905.33l-3.6,0C126.58,819,99.68,764.16,77,733.36,52.43,700,27.38,686.86,27.13,686.73l1.65-3.21c1,.54,25.92,13.56,51,47.52C102.83,762.3,130.19,817.91,129.54,905.33Z"/><polygon class="cls-31" points="190.15 881.54 190 882.64 170.32 1024 90.98 1024 71.14 881.54 190.15 881.54"/><path class="cls-12" d="M190,882.64,170.32,1024h-78C125.34,1001.35,167.05,959,190,882.64Z"/></g></g></g></svg>