<svg xmlns="http://www.w3.org/2000/svg" xmlns:xlink="http://www.w3.org/1999/xlink" viewBox="0 0 151.26 119.93"><defs><style>.cls-1{isolation:isolate;}.cls-2{fill:#f1eff8;}.cls-11,.cls-12,.cls-13,.cls-14,.cls-15,.cls-16,.cls-17,.cls-18,.cls-19,.cls-20,.cls-23,.cls-24,.cls-3,.cls-4,.cls-5{opacity:0.7;}.cls-11,.cls-12,.cls-13,.cls-14,.cls-15,.cls-16,.cls-17,.cls-18,.cls-19,.cls-20,.cls-23,.cls-24,.cls-27,.cls-29,.cls-3,.cls-33,.cls-4,.cls-5,.cls-9{mix-blend-mode:overlay;}.cls-3{fill:url(#linear-gradient);}.cls-4{fill:url(#linear-gradient-2);}.cls-5{fill:url(#linear-gradient-3);}.cls-6{fill:#353890;}.cls-7{fill:#fff;}.cls-8{fill:#bbf5d5;}.cls-9{opacity:0.5;fill:url(#linear-gradient-4);}.cls-10{fill:#81f1b1;}.cls-11{fill:url(#linear-gradient-5);}.cls-12{fill:url(#linear-gradient-6);}.cls-13{fill:url(#linear-gradient-7);}.cls-14{fill:url(#linear-gradient-8);}.cls-15{fill:url(#linear-gradient-9);}.cls-16{fill:url(#linear-gradient-10);}.cls-17{fill:url(#linear-gradient-11);}.cls-18{fill:url(#linear-gradient-12);}.cls-19{fill:url(#linear-gradient-13);}.cls-20{fill:url(#linear-gradient-14);}.cls-21{fill:#b3ecfb;}.cls-22{fill:#fefefe;}.cls-23{fill:url(#linear-gradient-15);}.cls-24{fill:url(#linear-gradient-16);}.cls-25{opacity:0.1;}.cls-26{fill:#8ceab5;}.cls-27,.cls-29,.cls-33{opacity:0.75;}.cls-27{fill:url(#linear-gradient-17);}.cls-28{fill:#131f77;}.cls-29{fill:url(#linear-gradient-18);}.cls-30{fill:#5156dd;}.cls-31{fill:#fbd783;}.cls-32{fill:#2a195b;}.cls-33{fill:url(#linear-gradient-19);}</style><linearGradient id="linear-gradient" x1="103.35" y1="27.58" x2="140.78" y2="70.42" gradientUnits="userSpaceOnUse"><stop offset="0" stop-color="#fff"/><stop offset="0.06" stop-color="#ededed"/><stop offset="0.41" stop-color="#898989"/><stop offset="0.7" stop-color="#3f3f3f"/><stop offset="0.9" stop-color="#111"/><stop offset="1"/></linearGradient><linearGradient id="linear-gradient-2" x1="56.64" y1="8.97" x2="27.92" y2="82.19" xlink:href="#linear-gradient"/><linearGradient id="linear-gradient-3" x1="70" y1="89.22" x2="68.83" y2="122.65" xlink:href="#linear-gradient"/><linearGradient id="linear-gradient-4" x1="103.07" y1="88.06" x2="103.27" y2="101.48" gradientUnits="userSpaceOnUse"><stop offset="0" stop-color="#fff"/><stop offset="0.26" stop-color="#afafaf"/><stop offset="0.53" stop-color="#656565"/><stop offset="0.75" stop-color="#2e2e2e"/><stop offset="0.91" stop-color="#0d0d0d"/><stop offset="1"/></linearGradient><linearGradient id="linear-gradient-5" x1="119.02" y1="77.43" x2="127.62" y2="82.98" xlink:href="#linear-gradient"/><linearGradient id="linear-gradient-6" x1="322.18" y1="167.46" x2="324.88" y2="167.46" gradientTransform="translate(-235.95 -115.48)" xlink:href="#linear-gradient"/><linearGradient id="linear-gradient-7" x1="327.09" y1="167.46" x2="329.79" y2="167.46" gradientTransform="translate(-235.95 -115.48)" xlink:href="#linear-gradient"/><linearGradient id="linear-gradient-8" x1="322.18" y1="171.28" x2="324.88" y2="171.28" gradientTransform="translate(-235.95 -115.48)" xlink:href="#linear-gradient"/><linearGradient id="linear-gradient-9" x1="327.09" y1="171.28" x2="329.79" y2="171.28" gradientTransform="translate(-235.95 -115.48)" xlink:href="#linear-gradient"/><linearGradient id="linear-gradient-10" x1="322.18" y1="175.11" x2="324.88" y2="175.11" gradientTransform="translate(-235.95 -115.48)" xlink:href="#linear-gradient"/><linearGradient id="linear-gradient-11" x1="327.09" y1="175.11" x2="329.79" y2="175.11" gradientTransform="translate(-235.95 -115.48)" xlink:href="#linear-gradient"/><linearGradient id="linear-gradient-12" x1="322.18" y1="178.93" x2="324.88" y2="178.93" gradientTransform="translate(-235.95 -115.48)" xlink:href="#linear-gradient"/><linearGradient id="linear-gradient-13" x1="327.09" y1="178.93" x2="329.79" y2="178.93" gradientTransform="translate(-235.95 -115.48)" xlink:href="#linear-gradient"/><linearGradient id="linear-gradient-14" x1="185.35" y1="128.84" x2="179.46" y2="147.67" gradientTransform="matrix(-0.63, 0.78, 0.78, 0.63, 24.58, -136.61)" xlink:href="#linear-gradient"/><linearGradient id="linear-gradient-15" x1="169.96" y1="122.8" x2="173.36" y2="148.43" gradientTransform="matrix(-0.63, 0.78, 0.78, 0.63, 24.58, -136.61)" gradientUnits="userSpaceOnUse"><stop offset="0" stop-color="#fff"/><stop offset="1"/></linearGradient><linearGradient id="linear-gradient-16" x1="173.71" y1="140.24" x2="180.85" y2="151.46" xlink:href="#linear-gradient-15"/><linearGradient id="linear-gradient-17" x1="-53.05" y1="19.36" x2="-56.25" y2="15.11" gradientTransform="translate(174.7)" gradientUnits="userSpaceOnUse"><stop offset="0"/><stop offset="0.18" stop-color="#3c3c3c"/><stop offset="0.4" stop-color="#818181"/><stop offset="0.6" stop-color="#b7b7b7"/><stop offset="0.77" stop-color="#dedede"/><stop offset="0.91" stop-color="#f6f6f6"/><stop offset="0.99" stop-color="#fff"/></linearGradient><linearGradient id="linear-gradient-18" x1="-54.46" y1="24.85" x2="-70.96" y2="2.3" gradientTransform="matrix(1, 0, 0.3, 1, 98.07, -0.64)" xlink:href="#linear-gradient-17"/><linearGradient id="linear-gradient-19" x1="-56.24" y1="134.7" x2="-41.84" y2="116.39" gradientTransform="translate(86.57 -63.07) rotate(-18.75)" xlink:href="#linear-gradient-17"/></defs><g class="cls-1"><g id="圖層_2" data-name="圖層 2"><g id="Layer_1" data-name="Layer 1"><g id="Online_Prescription" data-name="Online Prescription"><path class="cls-2" d="M148,116.13a14.33,14.33,0,0,1-9.11,3.71,41.29,41.29,0,0,1-20-3.71c-2.9-1.43-5.55-3.35-8.43-4.76-.67-.33-1.36-.63-2.06-.9-7.13-2.64-15.06-.77-22.43,1.14L72.08,115.2c-14.79,3.82-30.9,7.56-44.91,1.48-4.54-2-9.13-5.87-8.68-10.79.28-3.21,2.69-5.84,5.35-7.65s5.68-3.09,8.22-5.06a19.48,19.48,0,0,0,6.3-8.88,30.13,30.13,0,0,0,.56-17.67,51.64,51.64,0,0,0-4.58-11.28c-2.62-4.93-5.8-9.65-8.75-14.39-3.18-5.11-6.19-10.47-7.22-16.39S18.6,12,23,7.88C27,4.05,33,3,38.82,3.71A31.58,31.58,0,0,1,47.46,6.1,25.79,25.79,0,0,1,55,11c2.93,2.8,5,6.4,7.58,9.48A29.12,29.12,0,0,0,78.7,30a26.89,26.89,0,0,0,18.46-2.89c8.52-4.88,14-14.49,23.2-17.9a23.88,23.88,0,0,1,3-.89c10.21-2.3,21.47,2.36,23.83,13.41,1.17,5.48.71,11.32-.2,16.79a92.28,92.28,0,0,1-6.28,20.72c-.59,1.42-1.18,2.84-1.73,4.27-3.47,9.09-5.39,18.49,1.68,26.82,2.3,2.71,5.18,4.92,7.3,7.78C151.79,103.28,152.9,111.24,148,116.13Z"/><path class="cls-3" d="M146.12,38.54a92.25,92.25,0,0,1-6.27,20.72c-.59,1.42-1.19,2.84-1.74,4.27-6.39-6-16.35-7.31-24.6-4.38-3,1.06-5.79,2.61-8.79,3.66A27.46,27.46,0,0,1,82.5,60.73,12.16,12.16,0,0,1,78.16,57c-2.49-3.77-1.25-9.12,1.85-12.4s7.58-4.85,12-5.74,9-1.22,13.26-2.58a26.27,26.27,0,0,0,16-13.79,22.42,22.42,0,0,0,1.92-10.59,14.06,14.06,0,0,0-.72-3.56C132.71,6,144,10.7,146.33,21.75,147.5,27.23,147,33.07,146.12,38.54Z"/><path class="cls-4" d="M76.26,47.25a8.66,8.66,0,0,1-3.52,1.36,18.8,18.8,0,0,1-9.06-.47c-3.4-1-6.49-3-10-3.72a14,14,0,0,0-8.25.88c-4.54,2-7.66,6.1-10.91,9.83l-.2.22c-2.62-4.93-5.8-9.65-8.75-14.39-3.18-5.11-6.19-10.47-7.22-16.39S18.6,12,23,7.88C27,4.05,33,3,38.82,3.71A31.58,31.58,0,0,1,47.46,6.1a17.17,17.17,0,0,0-.54,5.72,19.34,19.34,0,0,0,9.7,15.26c4.79,2.67,10.52,3.18,15.4,5.68a12.63,12.63,0,0,1,6.23,6.31C79.33,41.88,78.7,45.47,76.26,47.25Z"/><path class="cls-5" d="M120,108.77c-3.16.85-6.34,1.7-9.49,2.6-.67-.33-1.36-.63-2.06-.9-7.13-2.64-15.06-.77-22.43,1.14L72.08,115.2c-14.79,3.82-30.9,7.56-44.91,1.48-4.54-2-9.13-5.87-8.68-10.79.28-3.21,2.69-5.84,5.35-7.65s5.68-3.09,8.22-5.06a19.48,19.48,0,0,0,6.3-8.88c2.74-.06,5.48,0,8.19.09a24.57,24.57,0,0,1,5.93.66,24.78,24.78,0,0,1,6.22,3.1l8.61,5.36A64.37,64.37,0,0,0,73.45,97c7.18,3.39,15.51,3.89,23.32,2.47,3.36-.6,6.67-1.54,10.06-1.81s7,.2,9.79,2.17S121.1,105.55,120,108.77Z"/><path class="cls-6" d="M131.87,51.36V84.62a3,3,0,0,1-3,3H77.7a3,3,0,0,1-3-3V51.36a2.87,2.87,0,0,1,.2-1.07,3,3,0,0,1,2.81-1.95h51.15A3,3,0,0,1,131.87,51.36Z"/><path class="cls-6" d="M135.1,104.46H71.45c-2.07,0-3.07-1.65-2.26-3.6l2-4.88,2.42-5.84a4.64,4.64,0,0,1,4.06-2.51h51.15A4.82,4.82,0,0,1,132,88.86a3.6,3.6,0,0,1,.95,1.28l4.45,10.72C138.17,102.81,137.18,104.46,135.1,104.46Z"/><path class="cls-7" d="M109.19,95.7H97.36a1.1,1.1,0,0,0-.94.58l-1,2.48a.55.55,0,0,0,.53.83h14.72a.55.55,0,0,0,.52-.83l-1-2.48A1.08,1.08,0,0,0,109.19,95.7Z"/><rect class="cls-8" x="75.75" y="50.33" width="55.05" height="33.6" rx="1.42"/><path class="cls-9" d="M135.1,104.46H71.45c-2.07,0-3.07-1.65-2.26-3.6l2-4.88c3.42-2.64,7-5.13,11.21-6.26,5.64-1.54,11.64-.41,17.29,1.06s11.35,3.28,17.19,3.12a38.16,38.16,0,0,0,9.28-1.6,12.37,12.37,0,0,0,4.56-2A6.5,6.5,0,0,0,132,88.86a3.6,3.6,0,0,1,.95,1.28l4.45,10.72C138.17,102.81,137.18,104.46,135.1,104.46Z"/><rect class="cls-6" x="121.33" y="67.52" width="6.88" height="3.86" rx="0.71"/><path class="cls-10" d="M131.2,79.38V91.07a2.65,2.65,0,0,1-2.65,2.64H121a2.64,2.64,0,0,1-2.64-2.64V79.39a4.32,4.32,0,0,1,.5-2l3.14-6h5.59l3.14,6A4.43,4.43,0,0,1,131.2,79.38Z"/><rect class="cls-7" x="120.09" y="80.49" width="9.36" height="4.12" rx="0.83"/><path class="cls-11" d="M131.2,79.38V91.07a2.65,2.65,0,0,1-2.65,2.64H121a2.64,2.64,0,0,1-2.64-2.64v-8.4c.94,1,1.69,2.32,2.85,3a4.18,4.18,0,0,0,4.5-.27,5.18,5.18,0,0,0,2-4.14c0-2-.95-3.78-1.77-5.57a10.56,10.56,0,0,1-1.16-4.34,5.1,5.1,0,0,1,.19-1.34,4.6,4.6,0,0,1,2-2.53h.59a.7.7,0,0,1,.7.71v2.45a.7.7,0,0,1-.7.71h.06l3.14,6A4.43,4.43,0,0,1,131.2,79.38Z"/><path class="cls-7" d="M120.77,43.68a3.7,3.7,0,0,0-.88.09h-.06a1.9,1.9,0,0,0-.39.11h0l-.31.11a4.72,4.72,0,0,0-.92.48l-.31.23h0l0,0h0a2.61,2.61,0,0,0-.24.23l0,.06s-.07.05-.09.09l-.08.09a1.79,1.79,0,0,0-.25.31,2.6,2.6,0,0,0-.25.36,4.48,4.48,0,0,0-.29.58l-.06.14a1.55,1.55,0,0,0-.08.23,2.83,2.83,0,0,0-.13.5,2.13,2.13,0,0,0-.07.44,3.46,3.46,0,0,0,0,.46V84.82a2.32,2.32,0,0,1-2.33,2.34H83.51a2.33,2.33,0,0,1-2.34-2.34V48.24c0-.1,0-.2,0-.3A4.67,4.67,0,0,1,81.77,46a4.55,4.55,0,0,1,4-2.31Z"/><path class="cls-10" d="M125.38,48.24h-9.16a3.46,3.46,0,0,1,0-.46,3.11,3.11,0,0,1,.07-.44,2.83,2.83,0,0,1,.13-.5,2,2,0,0,1,.14-.37,4.48,4.48,0,0,1,.29-.58,2.6,2.6,0,0,1,.25-.36,1.79,1.79,0,0,1,.25-.31,1.45,1.45,0,0,1,.17-.18l0-.06a5.89,5.89,0,0,1,.6-.5,4.72,4.72,0,0,1,.92-.48l.31-.11h0a1.9,1.9,0,0,1,.39-.11h.06a4.24,4.24,0,0,1,.88-.09h0A4.58,4.58,0,0,1,125.38,48.24Z"/><rect class="cls-8" x="84.91" y="49.34" width="11.04" height="15.77" rx="1.13"/><rect class="cls-7" x="84.77" y="49.88" width="10.76" height="15.36" rx="1.1"/><path class="cls-10" d="M87.59,51.42v1.09h-.81a.54.54,0,0,1-.54-.54.46.46,0,0,1,0-.21.54.54,0,0,1,.5-.34Z"/><path class="cls-6" d="M88.93,52a.54.54,0,0,1-.54.54h-.8V51.42h.8l.15,0A.53.53,0,0,1,88.93,52Z"/><path class="cls-12" d="M88.93,52a.54.54,0,0,1-.54.54H86.78a.54.54,0,0,1-.54-.54.46.46,0,0,1,0-.21.48.48,0,0,1,.17,0,1.06,1.06,0,0,1,.56.16,1.76,1.76,0,0,0,1.2.05l.13-.05a.41.41,0,0,0,.16-.21.52.52,0,0,0,0-.21A.53.53,0,0,1,88.93,52Z"/><path class="cls-10" d="M92.5,51.42v1.09h-.81a.54.54,0,0,1-.54-.54.46.46,0,0,1,0-.21.54.54,0,0,1,.5-.34Z"/><path class="cls-6" d="M93.84,52a.54.54,0,0,1-.54.54h-.8V51.42h.8a.4.4,0,0,1,.15,0A.53.53,0,0,1,93.84,52Z"/><path class="cls-13" d="M93.84,52a.54.54,0,0,1-.54.54H91.69a.54.54,0,0,1-.54-.54.46.46,0,0,1,0-.21.49.49,0,0,1,.16,0,1.1,1.1,0,0,1,.57.16,1.59,1.59,0,0,0,.58.13,1.66,1.66,0,0,0,.62-.08l.13-.05a.56.56,0,0,0,.16-.21.52.52,0,0,0,0-.21A.53.53,0,0,1,93.84,52Z"/><path class="cls-10" d="M87.59,55.25v1.09h-.81a.55.55,0,0,1-.54-.55.49.49,0,0,1,0-.21.55.55,0,0,1,.5-.33Z"/><path class="cls-6" d="M88.93,55.79a.55.55,0,0,1-.54.55h-.8V55.25h.8l.15,0A.54.54,0,0,1,88.93,55.79Z"/><path class="cls-14" d="M88.93,55.79a.55.55,0,0,1-.54.55H86.78a.55.55,0,0,1-.54-.55.49.49,0,0,1,0-.21l.17,0a1.28,1.28,0,0,1,.56.16,1.63,1.63,0,0,0,.58.13,1.46,1.46,0,0,0,.62-.08l.13-.05a.41.41,0,0,0,.16-.21.52.52,0,0,0,0-.21A.54.54,0,0,1,88.93,55.79Z"/><path class="cls-10" d="M92.5,55.25v1.09h-.81a.55.55,0,0,1-.54-.55.49.49,0,0,1,0-.21.55.55,0,0,1,.5-.33Z"/><path class="cls-6" d="M93.84,55.79a.55.55,0,0,1-.54.55h-.8V55.25h.8l.15,0A.54.54,0,0,1,93.84,55.79Z"/><path class="cls-15" d="M93.84,55.79a.55.55,0,0,1-.54.55H91.69a.55.55,0,0,1-.54-.55.49.49,0,0,1,0-.21l.16,0a1.32,1.32,0,0,1,.57.16,1.59,1.59,0,0,0,.58.13,1.48,1.48,0,0,0,.62-.08l.13-.05a.56.56,0,0,0,.16-.21.52.52,0,0,0,0-.21A.54.54,0,0,1,93.84,55.79Z"/><path class="cls-10" d="M87.59,59.07v1.09h-.81a.54.54,0,0,1-.54-.54.46.46,0,0,1,0-.21.54.54,0,0,1,.5-.34Z"/><path class="cls-6" d="M88.93,59.62a.54.54,0,0,1-.54.54h-.8V59.07h.8l.15,0A.55.55,0,0,1,88.93,59.62Z"/><path class="cls-16" d="M88.93,59.62a.54.54,0,0,1-.54.54H86.78a.54.54,0,0,1-.54-.54.46.46,0,0,1,0-.21.34.34,0,0,1,.17,0,1.06,1.06,0,0,1,.56.16,1.88,1.88,0,0,0,.58.13,1.86,1.86,0,0,0,.62-.08.52.52,0,0,0,.13-.06.39.39,0,0,0,.16-.2.54.54,0,0,0,0-.22A.55.55,0,0,1,88.93,59.62Z"/><path class="cls-10" d="M92.5,59.07v1.09h-.81a.54.54,0,0,1-.54-.54.46.46,0,0,1,0-.21.54.54,0,0,1,.5-.34Z"/><path class="cls-6" d="M93.84,59.62a.54.54,0,0,1-.54.54h-.8V59.07h.8l.15,0A.55.55,0,0,1,93.84,59.62Z"/><path class="cls-17" d="M93.84,59.62a.54.54,0,0,1-.54.54H91.69a.54.54,0,0,1-.54-.54.46.46,0,0,1,0-.21.33.33,0,0,1,.16,0,1.1,1.1,0,0,1,.57.16,1.82,1.82,0,0,0,.58.13,1.89,1.89,0,0,0,.62-.08.75.75,0,0,0,.13-.06.53.53,0,0,0,.16-.2.54.54,0,0,0,0-.22A.55.55,0,0,1,93.84,59.62Z"/><path class="cls-10" d="M87.59,62.9V64h-.81a.54.54,0,0,1-.54-.54.46.46,0,0,1,0-.21.54.54,0,0,1,.5-.33Z"/><path class="cls-6" d="M88.93,63.44a.54.54,0,0,1-.54.54h-.8V62.9h.8a.39.39,0,0,1,.15,0A.53.53,0,0,1,88.93,63.44Z"/><path class="cls-18" d="M88.93,63.44a.54.54,0,0,1-.54.54H86.78a.54.54,0,0,1-.54-.54.46.46,0,0,1,0-.21l.17,0a1.16,1.16,0,0,1,.56.16,1.76,1.76,0,0,0,1.2,0l.13,0a.41.41,0,0,0,.16-.21.52.52,0,0,0,0-.21A.53.53,0,0,1,88.93,63.44Z"/><path class="cls-10" d="M92.5,62.9V64h-.81a.54.54,0,0,1-.54-.54.46.46,0,0,1,0-.21.54.54,0,0,1,.5-.33Z"/><path class="cls-6" d="M93.84,63.44a.54.54,0,0,1-.54.54h-.8V62.9h.8a.39.39,0,0,1,.15,0A.53.53,0,0,1,93.84,63.44Z"/><path class="cls-19" d="M93.84,63.44a.54.54,0,0,1-.54.54H91.69a.54.54,0,0,1-.54-.54.46.46,0,0,1,0-.21l.16,0a1.2,1.2,0,0,1,.57.16,1.59,1.59,0,0,0,.58.13,1.66,1.66,0,0,0,.62-.08l.13,0a.56.56,0,0,0,.16-.21.52.52,0,0,0,0-.21A.53.53,0,0,1,93.84,63.44Z"/><rect class="cls-10" x="98.26" y="50.78" width="9.15" height="4.79" rx="0.86"/><rect class="cls-10" x="98.26" y="57.7" width="14.23" height="1.73" rx="0.86"/><rect class="cls-10" x="98.26" y="61.83" width="14.23" height="1.73" rx="0.86"/><rect class="cls-10" x="85.81" y="69.81" width="26.12" height="1.73" rx="0.86"/><rect class="cls-10" x="85.81" y="73.94" width="26.12" height="1.73" rx="0.86"/><rect class="cls-10" x="102.74" y="83.74" width="9.19" height="1.73" rx="0.51"/><path class="cls-8" d="M6.64,77.39a4,4,0,0,1,.5,3.36c-.69,2.94,3.86.15,5.35,3.44s.83,4.85,2.64,6,5-.36,10.51,9.33c.95.58-.71,3.34-1.68,2.75-7.19.11-12.37-.65-12.37-4.12a3.87,3.87,0,0,0-2.38-3.83c-1-.53-2.14-.93-3.42-1.47-3.23-1.35-1.67-4.47-1.47-6.92S-.81,83.57.11,80.75s1.2-4.61,3.61-4.65A3.46,3.46,0,0,1,6.64,77.39Z"/><path class="cls-7" d="M25.86,101.49a.4.4,0,0,1-.49.16c-.75-.31-18.29-7.77-21.54-20.74a.4.4,0,0,1,.29-.48.41.41,0,0,1,.48.29c3.15,12.58,20.89,20.13,21.07,20.2a.41.41,0,0,1,.22.52Z"/><path class="cls-20" d="M6.64,77.39a4,4,0,0,1,.5,3.36c-.69,2.94,3.86.15,5.35,3.44s.83,4.85,2.64,6,5-.36,10.51,9.33c.95.58-.71,3.34-1.68,2.75-7.19.11-12.37-.65-12.37-4.12a3.87,3.87,0,0,0-2.38-3.83c.18-.5.35-1,.52-1.5A6,6,0,0,0,10,88.48c-.61-1.34-2-2.11-3-3.21A6.35,6.35,0,0,1,5.5,79.85,6,6,0,0,1,6.64,77.39Z"/><path class="cls-21" d="M26.29,68.62a18,18,0,0,1,.82,3.77c.61,4.67-2.67,2.86-.65,4s-3.59,4.05-2.71,5.71,5.32-.82,7.08,2.5-5.42,6.51-7.12,13.18c-.47,1.63-1.23,1.82-2.16,1.15a15.93,15.93,0,0,1-4.34-7.43c-.78-3.67-4.55-4.33-6.56-6.62a5.16,5.16,0,0,1-.84-1.28c-2.54-5.73,6.31.18,6.89-2.26s-5.67-2-6.27-4.91,2.85-1.52,4.62-6-1.1-7.69.73-9.91,2.14,6.87,2.89,4.72,2.07-.34,2.37,1.88-.52,4.65,1.81,1.28C24.44,66.11,25.55,66.6,26.29,68.62Z"/><path class="cls-22" d="M13.43,84.51c.16-.15.46-.26,1,0a7.83,7.83,0,0,1,1.75,1.19l.46.43a5.88,5.88,0,0,0,1.07.89,4,4,0,0,0,2.54.49,13,13,0,0,0,.43-1.34,8.9,8.9,0,0,0-.75-5.48,20.29,20.29,0,0,0-1-2,3.5,3.5,0,0,1-1.44,0,3.83,3.83,0,0,1-1.62-1.18l-.33-.34A6.4,6.4,0,0,0,13.89,76c-.23-.12-.55-.21-.67-.08a.25.25,0,0,1-.38-.34c.27-.31.74-.32,1.29,0a7.21,7.21,0,0,1,1.7,1.24c.12.11.23.23.34.35a3.31,3.31,0,0,0,1.39,1,2.63,2.63,0,0,0,1,0q-.43-.72-.87-1.41c-.23-.35-.45-.71-.67-1.06a5.71,5.71,0,0,1-.79-1.7,5.9,5.9,0,0,1,.88-3.83.26.26,0,0,1,.35-.12.26.26,0,0,1,.12.34,5.48,5.48,0,0,0-.84,3.5,5.09,5.09,0,0,0,.72,1.54l.66,1.06c.51.8,1,1.63,1.49,2.48a2,2,0,0,0,.87-1.25,6.21,6.21,0,0,0,.05-1.23v-.3a3.77,3.77,0,0,1,.27-1.66,3,3,0,0,1,1.1-1.22,4.19,4.19,0,0,1,.52-.27,1.71,1.71,0,0,0,.67-.41.27.27,0,0,1,.36,0,.26.26,0,0,1,.06.36,2.1,2.1,0,0,1-.88.57,2.94,2.94,0,0,0-.44.23,2.57,2.57,0,0,0-.93,1,3.39,3.39,0,0,0-.21,1.45v.29A5.52,5.52,0,0,1,21,77.83a2.47,2.47,0,0,1-1.11,1.61c.18.34.34.69.5,1a9.38,9.38,0,0,1,.77,5.8,12.64,12.64,0,0,1-.48,1.51s0,.06,0,.08a7.87,7.87,0,0,0-.56,2.22,4.71,4.71,0,0,0,0,.75,5.49,5.49,0,0,1,1.24-.61l.27-.11a7.38,7.38,0,0,0,3.63-2.83c.13-.2.24-.42.35-.63a4.76,4.76,0,0,1,1.07-1.53.27.27,0,0,1,.37,0,.26.26,0,0,1,0,.36,4.27,4.27,0,0,0-.94,1.37l-.36.65a7.21,7.21,0,0,1-2.85,2.57,10.25,10.25,0,0,1-1,.48l-.27.11a4.57,4.57,0,0,0-1.32.68s0,0,0,0c.05.29.11.57.18.85l.66,2.84A11.64,11.64,0,0,0,21.62,97a5.53,5.53,0,0,0,3.5,3.08.26.26,0,0,1,.17.32.23.23,0,0,1-.12.15.23.23,0,0,1-.2,0,6,6,0,0,1-3.82-3.37,12.06,12.06,0,0,1-.6-2l-.66-2.83a8.16,8.16,0,0,1-.32-2.31,6.91,6.91,0,0,1,.46-2,4.52,4.52,0,0,1-2.62-.59,6.42,6.42,0,0,1-1.16-1l-.44-.41A7.29,7.29,0,0,0,14.17,85c-.22-.12-.35-.12-.39-.08a.25.25,0,0,1-.36,0A.27.27,0,0,1,13.43,84.51Z"/><path class="cls-23" d="M26.29,68.62a18,18,0,0,1,.82,3.77c.61,4.67-2.67,2.86-.65,4s-3.59,4.05-2.71,5.71,5.32-.82,7.08,2.5-5.42,6.51-7.12,13.18c-.47,1.63-1.23,1.82-2.16,1.15a15.93,15.93,0,0,1-4.34-7.43c-.78-3.67-4.55-4.33-6.56-6.62A5,5,0,0,1,12,84.35c1-.19,2.08,0,3.13-.15a6.6,6.6,0,0,0,4.22-2.32,7.89,7.89,0,0,0,1.74-4.54c.05-.88,0-1.76,0-2.64A6.61,6.61,0,0,1,24,69.51,6.72,6.72,0,0,1,26.29,68.62Z"/><path class="cls-10" d="M29.55,83a2.37,2.37,0,0,1-1.34,1.54c-1.61.84,1.44,1.82.53,3.78s-1.89,2.27-1.68,3.53,2.11,2.12-.14,8.43c.11.66-1.79,1-1.91.31-2.86-3.23-4.54-5.89-3-7.24a2.32,2.32,0,0,0,.82-2.58c-.13-.64-.42-1.34-.67-2.14-.65-2,1.38-2.5,2.58-3.37s-1-3.24.69-3.92S28,80,29,81.12A2.07,2.07,0,0,1,29.55,83Z"/><path class="cls-7" d="M26.09,101.12a.24.24,0,0,1-.27-.16c-.15-.46-3.61-11.36,1-17.91a.23.23,0,1,1,.38.27c-4.49,6.36-1,17.38-1,17.49a.23.23,0,0,1-.15.3Z"/><path class="cls-24" d="M29.55,83a2.37,2.37,0,0,1-1.34,1.54c-1.61.84,1.44,1.82.53,3.78s-1.89,2.27-1.68,3.53,2.11,2.12-.14,8.43c.11.66-1.79,1-1.91.31-2.86-3.23-4.54-5.89-3-7.24a2.32,2.32,0,0,0,.82-2.58l.89-.35a3.64,3.64,0,0,0,2-1.57,8.72,8.72,0,0,0,.29-2.62A3.84,3.84,0,0,1,28,83.39,3.75,3.75,0,0,1,29.55,83Z"/><g class="cls-25"><path d="M127.45,14.94a1.3,1.3,0,0,0-1.93-1.14,1,1,0,0,0-.3.21l-1.61,1.61-.39-.4a.51.51,0,0,0-.72,0,.49.49,0,0,0,0,.72l.6.61-3,3-3.73,3.74a.41.41,0,0,0,0,.58l-1.28,1.28a.6.6,0,0,0,.84.85l1.29-1.28a.42.42,0,0,0,.59,0l4.52-4.53,2.2-2.19.59.6a.51.51,0,0,0,.72,0,.5.5,0,0,0,.16-.36.52.52,0,0,0-.16-.36l-.4-.39,1.61-1.61A1.26,1.26,0,0,0,127.45,14.94Z"/><path d="M113.3,32.68a1.5,1.5,0,0,0,3,0c0-.83-1.5-2.65-1.5-2.65S113.3,31.85,113.3,32.68Z"/><path d="M46,25.3a1.62,1.62,0,0,0,.73-.36,2.39,2.39,0,0,0,.21-.26l0-.07.07-.09a1.82,1.82,0,0,0,.23-.87v-.6l0-1.23V20l0-1.11V16.61L47.42,7V7a1.65,1.65,0,0,0-1.6-1.71H43.07a.64.64,0,0,0-.61-.47h-1A1.63,1.63,0,0,0,41.76,4a1.39,1.39,0,0,0-1.37-1.43,1.37,1.37,0,0,0-1.27.89A1.33,1.33,0,0,0,39,4a1.52,1.52,0,0,0,.23.83H37.92a.67.67,0,0,0-.61.47H34.55A1.68,1.68,0,0,0,32.93,7l0,6.6,0,7.36,0,2.72a1.66,1.66,0,0,0,1.43,1.69H45.68A1,1,0,0,0,46,25.3ZM39.53,3.67A.89.89,0,0,1,41.28,4a.85.85,0,0,1-.36.74l-.11.09H40A.94.94,0,0,1,39.49,4,.73.73,0,0,1,39.53,3.67Z"/><path d="M99.49,72.73,95.23,71l-.06,0L70.77,47l-.11-.11a2.26,2.26,0,0,0,.19-.28c.46-.8-.08-2.26-.74-2.24s-.5,1.22-.8,1.16a.21.21,0,0,1-.12-.08l0,0c-.09-.16-.09-.4-.32-.39l0,0-2.52-2.48a.9.9,0,0,0-1.18,0,.75.75,0,0,0-.2,1,1.1,1.1,0,0,0,.09.14l2.67,3.08-.37.18.17.17-6.57,4.7-.8-1.82v-.07h0v0h0a15.36,15.36,0,0,0-4.31-1.08,7.16,7.16,0,0,1-.16-1c1.41-.32,2.18-2.73,2.27-4.53.64.12,1.14.19,1.14.19L62,40.74l-6.13-1.12L52,41.08l-.91,3.45.82,1.32,0,.13.21.15.83,1.35a3.87,3.87,0,0,1-.34,1.11,9.84,9.84,0,0,0-3.79.68c-2.61,1.87-.58,10.28-1.23,18.42a1.76,1.76,0,0,0,.36.26c-.64,6.72,1.22,9.9.59,12.71C47.83,83.71,44,97,44,97a.1.1,0,0,0,0,0,6,6,0,0,0-.39.63c-.19.34-.34.66-.46.92L43,98.54a1.79,1.79,0,0,0-.59,1.76c2.26.46,4.45,1,6.59,1.28.17-.75-1.75-2.16-2.88-2.7a2.46,2.46,0,0,1,.31-.92h.18C50,90.81,53.93,82.56,54.43,80A39.09,39.09,0,0,0,55,75.53c.89,2.52,1.79,4.22,1.77,5.94,0,3.11-1,16.87-1,16.87a.1.1,0,0,0,0,0,4.46,4.46,0,0,0-.25.69c-.12.37-.2.71-.26,1l-.18,0a1.75,1.75,0,0,0-.21,1.82c2.32,0,4.58.15,6.74.07,0-.77-2.17-1.8-3.4-2.13a2.44,2.44,0,0,1,.11-1l.17,0c1.76-7.6,3.92-16.42,3.87-19a43.73,43.73,0,0,0-1.87-11.23l.06,0c.54-2.5.43-6,.14-10,2.63.45,6.94-.67,11.4-2.17l.07.29,1.19-.72a1.8,1.8,0,0,0,1.43-.18,1.32,1.32,0,0,0,.37-.3L91.34,74.1l-.08.05,1.61,5.08s10.32,4.93,10.77,5-4.32-4.68-5.2-5.55a1.71,1.71,0,0,1-2-.35,1.43,1.43,0,0,1,.16-2.13,1.69,1.69,0,0,1,2.28.15A1.42,1.42,0,0,1,99,78.16c.81.94,5.19,5.92,5.21,5.54s-3.8-10.58-3.8-10.58ZM73,54.31l-1.38-.1,0,.23-9.26.88-.18-.42a36.49,36.49,0,0,0,6.66-6.47l.23.22.07-.15,4.4,5.1A5.07,5.07,0,0,0,73,54.31Z"/></g><path class="cls-21" d="M140.16,104.19c-.94-.19-4.54,1.27-3.88,6.79,0,.18,0,.34,0,.5-.36-.78-.8-1.63-1.3-2.49,0,0,0,0,0,0a1.36,1.36,0,0,1-.06-.29c0-.79.23-2.86,1.42-3.63,2.18-1.39,2.24-2.63,1.68-2.74-.79-.16-3.82,1.07-3.27,5.71a4.88,4.88,0,0,0,0,.68c-.28-.48-.58-1-.89-1.46l.13,0-.15-.06c-.28-.45-.58-.9-.89-1.34,0,0,.06-2.57,1.31-3.37,1.82-1.17,1.88-2.21,1.4-2.3s-2.8.74-2.79,3.9a4.45,4.45,0,0,0-.05,1.57l-.84-1.16h.06l-.07,0c-.42-.55-.84-1.09-1.27-1.61,0-.52.16-1.77.9-2.24,1.61-1,1.58-1.62,1.05-1.73s-2.4.68-2.05,3.6a2,2,0,0,0,0,.25l-.69-.8h0q-.6-.68-1.2-1.29c0-.39.11-1.4.7-1.78,1.31-.84,1.28-1.26.83-1.35s-1.89.53-1.61,2.82a1,1,0,0,0,0,.24,19.94,19.94,0,0,0-1.6-1.42,2.23,2.23,0,0,1-.57-1.71c.35-1.23,0-1.71-.27-1.57a1.84,1.84,0,0,0,0,2.46,6.52,6.52,0,0,0,.61,1c-2.09-.6-2.94.7-2.93,1.09s.6.37,1.48-.56a1.81,1.81,0,0,1,1.34-.39,2.23,2.23,0,0,1,.39.09,22.68,22.68,0,0,1,2.22,2.12c-2.77-.86-3.88.85-3.87,1.36,0,.36.77.47,1.9-.72a2.46,2.46,0,0,1,1.86-.5l.3.07c.66.73,1.31,1.52,1.94,2.35-3.86-1.32-5.4,1-5.39,1.72,0,.48,1,.63,2.52-1a3.51,3.51,0,0,1,2.65-.66l.39.11c.61.81,1.21,1.66,1.76,2.51-4.68-1.64-6.53,1.2-6.53,2,0,.57,1.23.74,3-1.14.8-.83,2.33-.86,3.29-.77a3.29,3.29,0,0,1,.37.1c.48.74.92,1.47,1.32,2.18a5.16,5.16,0,0,0-1-.26c-5.3-1.69-7.41,1.57-7.41,2.53,0,.68,1.47.88,3.59-1.35,1.16-1.22,3.62-1,4.55-.85l.33.14h0a21.1,21.1,0,0,1,1.85,4.18.15.15,0,0,0,.19.1.14.14,0,0,0,.11-.18,14.64,14.64,0,0,0-.64-1.74c0-.07,0-.14,0-.22,0-.94.27-3.4,1.69-4.31C140.76,105.79,140.83,104.32,140.16,104.19Z"/><path class="cls-10" d="M136.52,110.37c.73.48.83,1.76.85,2.25l0,.11a8,8,0,0,0-.34.9.07.07,0,0,0,.05.09.07.07,0,0,0,.1,0,10.88,10.88,0,0,1,1-2.15h0l.17-.07a3,3,0,0,1,2.36.47c1.08,1.18,1.84,1.08,1.85.73,0-.5-1.07-2.21-3.83-1.37a2.19,2.19,0,0,0-.49.13c.21-.37.44-.74.69-1.12l.2-.05a2.19,2.19,0,0,1,1.7.42c.91,1,1.54.91,1.55.61s-.93-1.91-3.37-1.1c.29-.43.61-.87.93-1.29l.2,0a1.79,1.79,0,0,1,1.37.37c.77.82,1.3.76,1.3.51s-.77-1.59-2.78-.94c.33-.42.68-.83,1-1.2l.16,0a1.28,1.28,0,0,1,1,.28c.58.62,1,.57,1,.38s-.55-1.15-2-.73a12.74,12.74,0,0,1,1.17-1.09l.2,0a.93.93,0,0,1,.69.22c.45.48.77.44.77.3s-.42-.89-1.51-.59a4.11,4.11,0,0,0,.32-.53,1,1,0,0,0,0-1.28c-.13-.07-.33.18-.15.81a1.19,1.19,0,0,1-.31.89,10.38,10.38,0,0,0-.84.73.62.62,0,0,0,0-.13c.16-1.19-.61-1.51-.82-1.48s-.25.26.42.71a1.22,1.22,0,0,1,.35.93q-.31.32-.63.66h0c-.13.13-.25.27-.37.41a.53.53,0,0,0,0-.13c.2-1.51-.78-1.93-1-1.88s-.29.35.54.9c.37.25.43.9.44,1.17-.22.27-.45.54-.66.83h0q-.22.28-.45.6a2.27,2.27,0,0,0,0-.82c0-1.64-1.11-2.1-1.42-2s-.23.59.71,1.21c.64.42.65,1.75.65,1.76-.16.22-.32.45-.47.68l-.07,0h.06c-.16.25-.32.5-.47.75a2,2,0,0,0,0-.35c.33-2.4-1.24-3.06-1.65-3s-.27.7.85,1.44c.62.4.7,1.48.71,1.89l0,.15v0c-.26.44-.5.88-.69,1.28a2.17,2.17,0,0,0,0-.26c.39-2.85-1.47-3.64-2-3.55S135.19,109.49,136.52,110.37Z"/><path class="cls-26" d="M136.93,113.76s2.11-3,4.12-3a7.34,7.34,0,0,1,3.8,1.31s-2.36,1.33-3.27,1.17S137.44,113.23,136.93,113.76Z"/><path class="cls-7" d="M137,113.87c.4-.23.83-.45,1.26-.66s.86-.39,1.3-.56a10.25,10.25,0,0,1,1.36-.43,5.11,5.11,0,0,1,1.4-.17s0,0,0,0a0,0,0,0,0,0,0,5.29,5.29,0,0,0-1.43.12,10.9,10.9,0,0,0-1.38.4,12.86,12.86,0,0,0-1.34.53c-.44.19-.87.4-1.3.62a.13.13,0,0,0,.12.22h0Z"/><path class="cls-26" d="M136.94,113.88s-.8-2.24-2.07-2.59a4.72,4.72,0,0,0-2.61.15s1.25,1.25,1.85,1.31A6.51,6.51,0,0,1,136.94,113.88Z"/><path class="cls-7" d="M136.88,113.94c-.21-.22-.44-.43-.67-.63s-.47-.4-.72-.59a7.94,7.94,0,0,0-.78-.5,3.31,3.31,0,0,0-.85-.35s0,0,0,0,0,0,0,0a3.46,3.46,0,0,1,.88.33,6.59,6.59,0,0,1,.8.49c.26.17.5.36.75.56s.47.41.7.62a.09.09,0,0,1,0,.12.08.08,0,0,1-.11,0h0Z"/><path class="cls-10" d="M123.67,15.45l-2.19,2.19L117,22.17a.42.42,0,0,1-.59,0l-1.28,1.29a.6.6,0,0,1-.85-.85l1.29-1.29a.39.39,0,0,1,0-.58L119.24,17l3-3,1.18,1.17Z"/><path class="cls-6" d="M125.14,15.7a.49.49,0,0,1-.15.35.51.51,0,0,1-.72,0l-.6-.6-.26-.26L122.23,14l-.6-.6a.51.51,0,0,1-.15-.36.49.49,0,0,1,.15-.36.51.51,0,0,1,.72,0l.39.39,1.51,1.51.34.34.4.4A.51.51,0,0,1,125.14,15.7Z"/><path class="cls-6" d="M126.58,12.41a1.25,1.25,0,0,1-.38.92l-1.61,1.61-.34-.34-1.51-1.51,1.61-1.6a.89.89,0,0,1,.3-.22,1.29,1.29,0,0,1,1.55.22A1.25,1.25,0,0,1,126.58,12.41Z"/><path class="cls-6" d="M121.48,17.64,117,22.17a.42.42,0,0,1-.59,0l-1.28,1.29a.6.6,0,0,1-.85-.85l1.29-1.29a.39.39,0,0,1,0-.58L119.24,17c.77.21,1.67-.28,2.14.48Z"/><path class="cls-27" d="M126.2,13.33l-1.61,1.61.4.4a.51.51,0,0,1,.15.36.49.49,0,0,1-.15.35.51.51,0,0,1-.72,0l-.6-.6-2.19,2.19L117,22.17a.42.42,0,0,1-.59,0l-1.28,1.29a.6.6,0,0,1-.85-.85l1.29-1.29a.39.39,0,0,1,0-.58L119.24,17l1.2-1.2h.45a6.41,6.41,0,0,0,2.52-.62,3.4,3.4,0,0,0,.48-.29,3.37,3.37,0,0,0,.36-.3,1.57,1.57,0,0,0,.31-.53,3.69,3.69,0,0,0-.12-1.47,2.64,2.64,0,0,1,.21-1.33,1.29,1.29,0,0,1,1.55.22,1.3,1.3,0,0,1,0,1.84Z"/><path class="cls-6" d="M115.42,30.15a1.49,1.49,0,1,1-3,0c0-.82,1.49-2.65,1.49-2.65S115.42,29.33,115.42,30.15Z"/><path class="cls-8" d="M46.57,4.44v0l-.07,9.61v7a1.82,1.82,0,0,1-.23.87l-.06.09,0,.08c-.07.09-.14.16-.22.25a1.57,1.57,0,0,1-.73.36.93.93,0,0,1-.33,0H33.37A1.65,1.65,0,0,1,32,21.12l0-2.72L32,11l0-6.6a1.67,1.67,0,0,1,1.62-1.7H45A1.64,1.64,0,0,1,46.57,4.44Z"/><path class="cls-28" d="M39.94,2.27a.93.93,0,0,1-.44.11.81.81,0,0,1-.41-.11Z"/><path class="cls-6" d="M41.6,2.27h-1a1.52,1.52,0,0,0,.26-.84A1.39,1.39,0,0,0,39.52,0a1.37,1.37,0,0,0-1.26.89,1.07,1.07,0,0,0-.11.54,1.49,1.49,0,0,0,.23.84H37.05a.65.65,0,0,0-.6.47.44.44,0,0,0,0,.2.71.71,0,0,0,0,.2h0a.61.61,0,0,0,.31.39.57.57,0,0,0,.29.07h4.54a.64.64,0,0,0,.64-.67.34.34,0,0,0,0-.2A.64.64,0,0,0,41.6,2.27Zm-3-.84a1,1,0,0,1,0-.29.9.9,0,0,1,1.76.29.94.94,0,0,1-.36.75l-.12.09a.93.93,0,0,1-.44.11.81.81,0,0,1-.41-.11A1,1,0,0,1,38.62,1.43Z"/><ellipse class="cls-7" cx="35.12" cy="8.28" rx="1.25" ry="1.19" transform="translate(24.16 42.66) rotate(-85.57)"/><path class="cls-6" d="M41.65,8H38.09a.36.36,0,0,1-.35-.37h0a.36.36,0,0,1,.36-.37h3.55a.35.35,0,0,1,.35.37h0A.37.37,0,0,1,41.65,8Z"/><path class="cls-7" d="M44.54,10.57H38.31a.6.6,0,0,1-.59-.62V9.11a.61.61,0,0,1,.59-.62h6.23a.6.6,0,0,1,.59.62V10A.6.6,0,0,1,44.54,10.57Z"/><ellipse class="cls-7" cx="35.09" cy="12.91" rx="1.25" ry="1.19" transform="translate(19.51 46.9) rotate(-85.57)"/><path class="cls-6" d="M41.61,12.66H38.06a.36.36,0,0,1-.35-.38h0a.37.37,0,0,1,.35-.37h3.56a.37.37,0,0,1,.35.37h0A.37.37,0,0,1,41.61,12.66Z"/><path class="cls-7" d="M44.5,15.21H38.28a.61.61,0,0,1-.59-.63v-.83a.61.61,0,0,1,.6-.62h6.23a.6.6,0,0,1,.59.62v.83A.62.62,0,0,1,44.5,15.21Z"/><ellipse class="cls-7" cx="35.06" cy="17.55" rx="1.25" ry="1.19" transform="translate(14.85 51.15) rotate(-85.57)"/><path class="cls-6" d="M41.58,17.29H38a.36.36,0,0,1-.35-.37h0a.37.37,0,0,1,.36-.37h3.55a.37.37,0,0,1,.36.37h0A.37.37,0,0,1,41.58,17.29Z"/><path class="cls-7" d="M44.47,19.84H38.24a.61.61,0,0,1-.59-.62v-.84a.61.61,0,0,1,.6-.62h6.23a.6.6,0,0,1,.58.62v.84A.62.62,0,0,1,44.47,19.84Z"/><path class="cls-6" d="M34.83,13.7a.19.19,0,0,1-.16-.08L34.29,13a.2.2,0,0,1,.05-.28.18.18,0,0,1,.26.05l.22.34.82-1.34a.2.2,0,0,1,.27-.06A.2.2,0,0,1,36,12l-1,1.59a.19.19,0,0,1-.16.09Z"/><path class="cls-6" d="M34.8,9a.21.21,0,0,1-.16-.08l-.38-.59a.21.21,0,0,1,.05-.28.19.19,0,0,1,.27,0l.22.34.82-1.33a.18.18,0,0,1,.26-.06.2.2,0,0,1,.06.27L35,8.92A.17.17,0,0,1,34.8,9Z"/><path class="cls-29" d="M45,2.74H42.21a.64.64,0,0,0-.61-.47h-1a1.52,1.52,0,0,0,.26-.84A1.39,1.39,0,0,0,39.52,0a1.37,1.37,0,0,0-1.26.89,1.07,1.07,0,0,0-.11.54,1.49,1.49,0,0,0,.23.84H37.05a.65.65,0,0,0-.6.47h-.33a4,4,0,0,1,.32.4h0c.11.13.22.26.31.39a15,15,0,0,1,2,3.24c.06.16.13.33.18.49a2.85,2.85,0,0,1,.22.74,4.21,4.21,0,0,1,.12.48,7,7,0,0,1,.1,2.08,5.41,5.41,0,0,1-.28,1.34,4.81,4.81,0,0,1-.28.75,2.92,2.92,0,0,1-.23.47,6.2,6.2,0,0,1-.93,1.27,6.8,6.8,0,0,1-.63.56C35.71,16,34,16.59,32.66,17.66a4.91,4.91,0,0,0-.69.74l0,2.72a1.65,1.65,0,0,0,1.42,1.69H44.82a.93.93,0,0,0,.33,0,1.57,1.57,0,0,0,.73-.36c.08-.09.15-.16.22-.25l0-.08.06-.09a1.82,1.82,0,0,0,.23-.87V17.9c-.56-.93-1.13-1.85-1.66-2.8-.36-.65-.71-1.32-1-2a22.27,22.27,0,0,1-.88-2.34l-.06-.22a5.67,5.67,0,0,1-.26-2.08,1.79,1.79,0,0,1,0-.24,4.29,4.29,0,0,1,2.37-3c.5-.27,1-.51,1.58-.74v0A1.64,1.64,0,0,0,45,2.74ZM38.62,1.43a1,1,0,0,1,0-.29.9.9,0,0,1,1.76.29.94.94,0,0,1-.36.75l-.12.09h-.85A1,1,0,0,1,38.62,1.43Z"/><path class="cls-30" d="M54,47l5.17,3.78,8.43-6.5,1.25,1.27c-3.22,4.18-6.62,8.05-9.36,9.08-1.3.38-6-2.14-7.48-3.47Z"/><path class="cls-31" d="M68.87,45.54A1.67,1.67,0,0,0,70,44.62c.46-.86-.08-2.44-.74-2.42s-.49,1.32-.8,1.25-.16-.58-.48-.56-.34,1.38-.34,1.38Z"/><polygon class="cls-7" points="67.62 44.27 66.39 44.9 68.27 46.82 68.87 45.54 67.62 44.27"/><path class="cls-31" d="M45.57,100a2.78,2.78,0,0,0-.34,1.26c0,.71-3.18.12-3.18.12a15,15,0,0,1,.72-1.66,5.49,5.49,0,0,1,.85-1.29Z"/><path class="cls-7" d="M47.28,65.67c-1.2,8.61,1.06,12.38.37,15.66S43.12,99,43.12,99a3,3,0,0,0,2.63,1c3.34-7.69,7.32-16.58,7.82-19.34A50.23,50.23,0,0,0,53.9,66.4Z"/><path class="cls-6" d="M42.14,100.61a2,2,0,0,0-.58,1.89c2.26.5,4.45,1,6.59,1.39.17-.82-1.77-2.35-2.9-2.93A3.6,3.6,0,0,1,42.14,100.61Z"/><path class="cls-31" d="M57.51,100.9a2.88,2.88,0,0,0-.09,1.3c.13.7-3.09.74-3.09.74a15.56,15.56,0,0,1,.38-1.76,5.33,5.33,0,0,1,.58-1.43Z"/><path class="cls-7" d="M52.47,66.92c.5,8.68,3.46,11.93,3.43,15.29s-1,18.18-1,18.18a3,3,0,0,0,2.78.46c1.76-8.19,3.92-17.69,3.87-20.49a49.87,49.87,0,0,0-2.47-14Z"/><path class="cls-6" d="M54.27,102.19a2.05,2.05,0,0,0-.2,2c2.32,0,4.57.15,6.73.07,0-.83-2.19-2-3.42-2.3A3.64,3.64,0,0,1,54.27,102.19Z"/><path class="cls-30" d="M46.7,67.35c1.66,1.7,10.55,2.31,13,.88.91-4.57,0-12.28-.56-20.12-3.15-1.55-9-1.8-11.25-.61C45.33,49.51,47.36,58.58,46.7,67.35Z"/><path class="cls-31" d="M51.51,47.22a6.29,6.29,0,0,0,.69-3.07h2.45A10.58,10.58,0,0,0,55,47.57C54.73,48.05,51.75,47.86,51.51,47.22Z"/><path class="cls-31" d="M51,44c1.27.91,2,2.23,3.42,1.94,1.88-.13,2.72-4.16,2.46-6.08l-4.76-1.53Z"/><path class="cls-32" d="M50.23,42.39l1.84,3.18,2.31-1.91-1-1.54.73-.67.52,1,.54-.43L55.1,40.5a22.88,22.88,0,0,0,3,.67l3.09-2.87L55,37.1l-3.9,1.56Z"/><path class="cls-10" d="M64,41.23a.78.78,0,0,0,.1.15L90.47,74.26l1.69-1.47,2.15-1.87L69.9,45l-4.51-4.79a.86.86,0,0,0-1.39,1Z"/><path class="cls-6" d="M92,79.79s10.31,5.31,10.77,5.34-4.32-5-5.2-6a1.61,1.61,0,1,1,.58-.5c.81,1,5.18,6.38,5.21,6s-3.81-11.4-3.81-11.4l-.93-.43-4.26-1.91-.06,0-2.15,1.87-1.69,1.47-.07.06Z"/><path class="cls-33" d="M64.1,41.38,90.47,74.26l-.07.06L92,79.79s10.31,5.31,10.77,5.34-4.32-5-5.2-6a1.61,1.61,0,1,1,.58-.5c.81,1,5.18,6.38,5.21,6s-3.81-11.4-3.81-11.4l-.93-.43c-.44.25-.88.5-1.32.72A4.11,4.11,0,0,1,96,74a3.37,3.37,0,0,1-1.5-.22,11.72,11.72,0,0,1-2.29-1,25.28,25.28,0,0,1-6.69-6C81,61.53,77.06,56,73.09,50.41a25.59,25.59,0,0,1-3-5A3.65,3.65,0,0,1,69.9,45l-4.51-4.79a.86.86,0,0,0-1.39,1A.78.78,0,0,0,64.1,41.38Z"/><path class="cls-30" d="M59.15,48.08,61.57,54l10.58-1.09.39,1.74c-4.93,1.86-9.86,3.36-12.73,2.79-1.31-.36-4-5-4.53-6.89Z"/><path class="cls-31" d="M72.54,54.67a1.69,1.69,0,0,0,1.44-.2c.84-.49,1.21-2.11.64-2.45s-1.12.87-1.34.65.16-.58-.12-.73-1,1-1,1Z"/><polygon class="cls-7" points="72.16 52.93 70.77 52.82 71.36 55.44 72.54 54.67 72.16 52.93"/></g></g></g></g></svg>