<svg xmlns="http://www.w3.org/2000/svg" xmlns:xlink="http://www.w3.org/1999/xlink" viewBox="0 0 155.37 128.36"><defs><style>.cls-1{isolation:isolate;}.cls-2{fill:#f1eff8;}.cls-13,.cls-15,.cls-16,.cls-24,.cls-25,.cls-3,.cls-4,.cls-5{opacity:0.7;}.cls-10,.cls-13,.cls-15,.cls-16,.cls-18,.cls-24,.cls-25,.cls-27,.cls-29,.cls-3,.cls-4,.cls-5{mix-blend-mode:overlay;}.cls-3{fill:url(#linear-gradient);}.cls-4{fill:url(#linear-gradient-2);}.cls-5{fill:url(#linear-gradient-3);}.cls-6{fill:#353890;}.cls-7{fill:#fff;}.cls-8{fill:#bbf5d5;}.cls-9{fill:#81f1b1;}.cls-10,.cls-18,.cls-27,.cls-29{opacity:0.75;}.cls-10{fill:url(#linear-gradient-4);}.cls-11{fill:#b3ecfb;}.cls-12{fill:#8ceab5;}.cls-13{fill:url(#linear-gradient-5);}.cls-14{fill:#fefefe;}.cls-15{fill:url(#linear-gradient-6);}.cls-16{fill:url(#linear-gradient-7);}.cls-17,.cls-21{opacity:0.1;}.cls-18{fill:url(#linear-gradient-8);}.cls-19{fill:#fbd783;}.cls-20{fill:#5156dd;}.cls-22{fill:#2a195b;}.cls-23{fill:#131f77;}.cls-24{fill:url(#linear-gradient-9);}.cls-25{fill:url(#linear-gradient-10);}.cls-26{fill:#32a560;}.cls-27{fill:url(#linear-gradient-11);}.cls-28{fill:#bef3d6;}.cls-29{fill:url(#linear-gradient-12);}</style><linearGradient id="linear-gradient" x1="37.66" y1="-1.07" x2="41.49" y2="79.11" gradientUnits="userSpaceOnUse"><stop offset="0" stop-color="#fff"/><stop offset="0.06" stop-color="#ededed"/><stop offset="0.41" stop-color="#898989"/><stop offset="0.7" stop-color="#3f3f3f"/><stop offset="0.9" stop-color="#111"/><stop offset="1"/></linearGradient><linearGradient id="linear-gradient-2" x1="98.29" y1="29.54" x2="133.53" y2="117.88" xlink:href="#linear-gradient"/><linearGradient id="linear-gradient-3" x1="46.68" y1="91.6" x2="55.11" y2="135.26" xlink:href="#linear-gradient"/><linearGradient id="linear-gradient-4" x1="129.47" y1="101.06" x2="92.81" y2="32.12" gradientUnits="userSpaceOnUse"><stop offset="0"/><stop offset="0.18" stop-color="#3c3c3c"/><stop offset="0.4" stop-color="#818181"/><stop offset="0.6" stop-color="#b7b7b7"/><stop offset="0.77" stop-color="#dedede"/><stop offset="0.91" stop-color="#f6f6f6"/><stop offset="0.99" stop-color="#fff"/></linearGradient><linearGradient id="linear-gradient-5" x1="-276.75" y1="94.29" x2="-281.34" y2="108.95" gradientTransform="matrix(-1, 0, 0, 1, -142.63, 0)" xlink:href="#linear-gradient"/><linearGradient id="linear-gradient-6" x1="-288.75" y1="89.58" x2="-286.09" y2="109.54" gradientTransform="matrix(-1, 0, 0, 1, -142.63, 0)" gradientUnits="userSpaceOnUse"><stop offset="0" stop-color="#fff"/><stop offset="1"/></linearGradient><linearGradient id="linear-gradient-7" x1="-285.82" y1="103.16" x2="-280.26" y2="111.91" xlink:href="#linear-gradient-6"/><linearGradient id="linear-gradient-8" x1="59.69" y1="18.02" x2="49.25" y2="0.38" xlink:href="#linear-gradient-4"/><linearGradient id="linear-gradient-9" x1="-84.92" y1="364.8" x2="-73.47" y2="364.8" gradientTransform="translate(-194.45 333.57) rotate(-145.65)" xlink:href="#linear-gradient"/><linearGradient id="linear-gradient-10" x1="-76.72" y1="362.19" x2="-63.66" y2="362.19" gradientTransform="translate(-194.45 333.57) rotate(-145.65)" xlink:href="#linear-gradient"/><linearGradient id="linear-gradient-11" x1="128.66" y1="116.13" x2="119.3" y2="102.65" xlink:href="#linear-gradient-4"/><linearGradient id="linear-gradient-12" x1="-471.1" y1="92.53" x2="-472.35" y2="90.87" gradientTransform="matrix(-1, 0, 0, 1, -352.04, 0)" xlink:href="#linear-gradient-4"/></defs><g class="cls-1"><g id="圖層_2" data-name="圖層 2"><g id="Layer_1" data-name="Layer 1"><g id="Talk_to_a_Doctor" data-name="Talk to a Doctor"><path class="cls-2" d="M142.14,77.92c15.12,33.33-11.45,43.91-26.06,38.59-10.57-3.85-15.36-5.31-20.07-4.68-3.7.49-7.36,2.27-13.76,5.18-4,1.83-9.1,4.11-16,6.79-34.24,13.4-82.1-5.53-37.41-21a11,11,0,0,0,3.81-2.1c6-5.34-1.53-15.84-10-27.17C16.68,65.37,10.15,56.81,7.82,49.41,2.28,31.88,9.35,9.54,33.67,1.43a27.89,27.89,0,0,1,17.47-.05,57.72,57.72,0,0,1,11.12,5,.45.45,0,0,1,.12.06c5.92,3.31,11.82,7.3,18,10.52.25.14.48.26.73.38l.25.13.91.45,1.13.54c.54.25,1.07.49,1.61.71l.5.22.76.31c9.73,3.91,20.44,5,33.37-1.75S142.11,12.57,147.4,19a19.77,19.77,0,0,1,3.71,7.5C155,40.94,125.88,42.11,142.14,77.92Z"/><path class="cls-3" d="M72.44,56.48c-1.46,3.29-4.79,5.92-8.37,5.7s-6.47-3.07-8.65-6S51.25,50.07,48,48.4a10.25,10.25,0,0,0-13.59,4.8c-.94,2.19-1.08,4.64-1.62,6.95A22.17,22.17,0,0,1,22.73,73.5C16.68,65.37,10.15,56.81,7.82,49.41,2.28,31.88,9.35,9.54,33.67,1.43a27.89,27.89,0,0,1,17.47-.05c-.48.31-.93.63-1.38,1-3.93,3-6.81,7.85-6.36,12.8C44,21.59,49.83,26.42,56,28.42c2.55.83,5.21,1.32,7.61,2.52,5.47,2.78,8.5,8.92,9.59,14.94C73.81,49.42,73.91,53.2,72.44,56.48Z"/><path class="cls-4" d="M142.14,77.92c15.12,33.33-11.45,43.91-26.06,38.59-10.57-3.85-15.36-5.31-20.07-4.68-.47-3.06,1.47-6.35,4.08-8.24,3-2.18,6.78-3,10.28-4.34s7.08-3.31,8.56-6.73c2.28-5.28-1.53-11.46-6.49-14.38a21.58,21.58,0,0,0-21.41,0,25.06,25.06,0,0,1-4.67,2.57,13.37,13.37,0,0,1-4.8.43,45,45,0,0,1-12.83-2.53c-3.46-1.22-7.18-3.41-7.7-7-.39-2.69,1.24-5.35,3.4-7a26.37,26.37,0,0,1,7.38-3.4C84.54,56.64,97.12,49.61,104,38c1.48-2.48,2.68-5.12,4.34-7.48,4.69-6.67,12.73-10.38,20.79-11.6,6.08-.9,12.16-.51,18.23.08a19.77,19.77,0,0,1,3.71,7.5C155,40.94,125.88,42.11,142.14,77.92Z"/><path class="cls-5" d="M84.42,109c-2.81,1.3-6.07,2.09-8,4.46a2,2,0,0,0-.58,1.8c.24.7,1.09,1,1.83,1.13a37.78,37.78,0,0,0,4.62.66c-4,1.83-9.1,4.11-16,6.79-34.24,13.4-82.1-5.53-37.41-21a11,11,0,0,0,3.81-2.1c13.44-2.09,26.82-5.47,40.4-5.16A35.14,35.14,0,0,1,84.32,97.3c2.28.82,4.64,2.3,5.12,4.67C90,105,87.22,107.65,84.42,109Z"/><path class="cls-6" d="M142.14,33.29V84.67a3.12,3.12,0,0,1-.33,1.41,2.68,2.68,0,0,1-.83,1,.29.29,0,0,1-.07.08,2.87,2.87,0,0,1-1.17.51,3.83,3.83,0,0,1-.51,0h-62a2.8,2.8,0,0,1-1.79-.65,3.16,3.16,0,0,1-1.11-2.42L73.22,56l-.79-21.55v0a.88.88,0,0,1,0-.21h0a5.44,5.44,0,0,1,1.37-1.92h0A13.7,13.7,0,0,1,75.5,30.8a2.76,2.76,0,0,1,1.69-.58h62A3,3,0,0,1,142.14,33.29Z"/><path class="cls-7" d="M140.26,34.8V85.39a1.5,1.5,0,0,1,0,.37.51.51,0,0,1,0,.25.31.31,0,0,1,0,.17,1.68,1.68,0,0,1-.06.24l-.11.24a2.71,2.71,0,0,1-.75,1l-.15.13a1.22,1.22,0,0,1-.19.12.76.76,0,0,0-.19.12,2.52,2.52,0,0,1-.34.15,1.29,1.29,0,0,1-.21.06,1.55,1.55,0,0,1-.31.07l-.18,0a1.45,1.45,0,0,1-.3,0h-62a1.58,1.58,0,0,1-.32,0,2.91,2.91,0,0,1-2.6-2.89V34.8c0-.11,0-.23,0-.34v0a.88.88,0,0,1,0-.21s0,0,0,0a2.88,2.88,0,0,1,1.38-1.93,2.84,2.84,0,0,1,1.47-.4h62A2.91,2.91,0,0,1,140.26,34.8Z"/><rect class="cls-8" x="76.02" y="37.9" width="17.43" height="45.12" rx="3.33"/><rect class="cls-8" x="97.96" y="37.9" width="17.43" height="45.12" rx="3.33"/><rect class="cls-8" x="119.89" y="37.9" width="17.43" height="45.12" rx="3.33"/><rect class="cls-6" x="82.12" y="58.59" width="5.24" height="2.94" rx="1.47"/><path class="cls-6" d="M89.63,67.61v8.9a2,2,0,0,1-2,2H81.85a2,2,0,0,1-2-2V67.62a3.35,3.35,0,0,1,.38-1.55l2.39-4.55h4.26l2.38,4.56A3.27,3.27,0,0,1,89.63,67.61Z"/><rect class="cls-7" x="81.17" y="68.46" width="7.13" height="3.14"/><path class="cls-6" d="M101.42,71.94H104a0,0,0,0,1,0,0v2.85a1.29,1.29,0,0,1-1.29,1.29h0a1.29,1.29,0,0,1-1.29-1.29V71.94A0,0,0,0,1,101.42,71.94Z" transform="translate(84.4 -51.26) rotate(45.91)"/><path class="cls-7" d="M105.69,69.05h0A1.29,1.29,0,0,1,107,70.35V73.2a0,0,0,0,1,0,0H104.4a0,0,0,0,1,0,0V70.35a1.29,1.29,0,0,1,1.29-1.29Z" transform="translate(83.23 -54.27) rotate(45.91)"/><path class="cls-9" d="M103.25,73.05h2.18a0,0,0,0,1,0,0v2.4a1.09,1.09,0,0,1-1.09,1.09h0a1.09,1.09,0,0,1-1.09-1.09v-2.4a0,0,0,0,1,0,0Z" transform="translate(176.56 -31.34) rotate(88.6)"/><path class="cls-7" d="M107.83,73h0a1.09,1.09,0,0,1,1.09,1.09v2.4a0,0,0,0,1,0,0h-2.18a0,0,0,0,1,0,0v-2.4A1.09,1.09,0,0,1,107.83,73Z" transform="translate(179.88 -34.92) rotate(88.6)"/><path class="cls-6" d="M107.34,70.92h2.18a0,0,0,0,1,0,0v2.4a1.09,1.09,0,0,1-1.09,1.09h0a1.09,1.09,0,0,1-1.09-1.09v-2.4a0,0,0,0,1,0,0Z" transform="translate(218.34 2.25) rotate(113.52)"/><path class="cls-7" d="M111.64,72.32h0a1.09,1.09,0,0,1,1.09,1.09v2.4a0,0,0,0,1,0,0h-2.18a0,0,0,0,1,0,0v-2.4A1.09,1.09,0,0,1,111.64,72.32Z" transform="translate(224.1 1.27) rotate(113.52)"/><circle class="cls-6" cx="126.49" cy="73.7" r="2.75"/><circle class="cls-9" cx="125.97" cy="73.4" r="2.75"/><rect class="cls-7" x="123.22" y="72.99" width="5.5" height="0.82" transform="translate(83.09 -65.95) rotate(42.67)"/><circle class="cls-6" cx="132.4" cy="72.39" r="2.16"/><circle class="cls-9" cx="131.97" cy="72.6" r="2.16"/><rect class="cls-7" x="129.81" y="72.27" width="4.32" height="0.65" transform="translate(-12.89 31.34) rotate(-12.92)"/><circle class="cls-6" cx="128.11" cy="68.14" r="1.7"/><circle class="cls-9" cx="127.74" cy="68.11" r="1.7"/><rect class="cls-7" x="126.04" y="67.85" width="3.4" height="0.51" transform="translate(27.95 -36.76) rotate(18.35)"/><rect class="cls-7" x="78.35" y="42.31" width="5.58" height="1.62" rx="0.81"/><rect class="cls-7" x="78.35" y="45.97" width="12.4" height="3.43" rx="1.72"/><rect class="cls-7" x="100.47" y="42.31" width="5.58" height="1.62" rx="0.81"/><rect class="cls-7" x="100.47" y="45.97" width="12.4" height="3.43" rx="1.72"/><rect class="cls-7" x="122.59" y="42.31" width="5.58" height="1.62" rx="0.81"/><rect class="cls-7" x="122.59" y="45.97" width="12.4" height="3.43" rx="1.72"/><path class="cls-10" d="M142.14,33.29V77.93c-.64-.08-1.26-.16-1.88-.28a10.15,10.15,0,0,1-2.93-.94c-.16-.07-.31-.16-.47-.25a18.55,18.55,0,0,1-3-2.51,1,1,0,0,0-.15-.14,10.13,10.13,0,0,0-.78-.69,3.11,3.11,0,0,0-.43-.31h0a8.73,8.73,0,0,0-.74-.5,11.35,11.35,0,0,0-1.39-.71l-.27-.09a12,12,0,0,0-3.63-.8l-.2,0a2.74,2.74,0,0,0-.57,0s0,0,0,0a14.51,14.51,0,0,0-5.79,1,8.29,8.29,0,0,0-1.05.45,18.6,18.6,0,0,0-3.46,2.23,26.7,26.7,0,0,0-6.63,8.45,1.4,1.4,0,0,1-.09.17c-.8,1.56-1.52,3.18-2.36,4.72-.1.19-.22.39-.32.57H75.31a1.58,1.58,0,0,1-.32,0,2.91,2.91,0,0,1-2.6-2.89v-29c.28-.13.55-.24.83-.34l.16,0A19,19,0,0,1,76,55.27a43.42,43.42,0,0,1,9.54-.35c2.61.09,5.26.17,7.89.07a44.51,44.51,0,0,0,4.5-.38,24.14,24.14,0,0,0,9.75-3.34,20.24,20.24,0,0,0,2.45-1.86,23.62,23.62,0,0,0,2.71-2.85h0a26,26,0,0,0,2.53-4,27.5,27.5,0,0,0,1.41-3.25,35,35,0,0,0,1.71-7.43s0-.08,0-.12a14.27,14.27,0,0,0,0-1.55h20.68A3,3,0,0,1,142.14,33.29Z"/><path class="cls-11" d="M24.87,94.3c-1.44-.29-7,2-5.95,10.42,0,.27,0,.52,0,.77-.56-1.21-1.23-2.5-2-3.83,0,0,0,0,0,0a3.12,3.12,0,0,1-.09-.46c.05-1.2.34-4.38,2.17-5.55,3.35-2.15,3.44-4,2.58-4.22-1.22-.24-5.86,1.65-5,8.77a8.4,8.4,0,0,0,.06,1c-.43-.74-.88-1.48-1.36-2.23l.19,0-.22-.09c-.44-.68-.9-1.37-1.37-2.05,0,0,.09-3.94,2-5.17,2.81-1.8,2.89-3.39,2.16-3.53-.93-.19-4.29,1.14-4.28,6a6.93,6.93,0,0,0-.08,2.42c-.42-.6-.85-1.2-1.29-1.79l.09,0-.11,0c-.63-.84-1.28-1.67-1.94-2.46,0-.81.25-2.72,1.37-3.44,2.48-1.59,2.44-2.49,1.62-2.66s-3.69,1-3.15,5.52c0,.14,0,.27,0,.39-.35-.42-.7-.82-1.05-1.22h0c-.61-.7-1.23-1.36-1.85-2,0-.61.18-2.16,1.08-2.73,2-1.3,2-1.94,1.27-2.08s-2.9.81-2.47,4.32a2.35,2.35,0,0,0,0,.38,27.68,27.68,0,0,0-2.45-2.18A3.44,3.44,0,0,1,4,84c.55-1.88,0-2.62-.4-2.4s-1.3,1.86,0,3.77a10.27,10.27,0,0,0,.94,1.59C1.29,86,0,88,0,88.58c0,.44.93.57,2.28-.85a2.79,2.79,0,0,1,2.06-.61,3.41,3.41,0,0,1,.59.13,34,34,0,0,1,3.4,3.26C4.09,89.2,2.39,91.82,2.4,92.59c0,.56,1.18.72,2.91-1.09a3.79,3.79,0,0,1,2.86-.77l.46.11c1,1.12,2,2.33,3,3.59-5.92-2-8.28,1.6-8.27,2.65,0,.74,1.58,1,3.88-1.45,1-1,2.82-1.11,4.06-1,.21,0,.41.1.59.16.94,1.25,1.85,2.56,2.7,3.86-7.17-2.53-10,1.84-10,3.1,0,.88,1.88,1.15,4.62-1.73,1.22-1.29,3.56-1.32,5-1.19.21,0,.4.1.58.16.73,1.13,1.4,2.25,2,3.34a8.12,8.12,0,0,0-1.48-.41C7.2,99.31,4,104.32,4,105.79c0,1,2.24,1.35,5.5-2.07,1.77-1.87,5.55-1.51,7-1.3a3.89,3.89,0,0,1,.51.21h0A33,33,0,0,1,19.82,109a.23.23,0,0,0,.29.16.24.24,0,0,0,.16-.29,21.73,21.73,0,0,0-1-2.66,3.43,3.43,0,0,1-.06-.34c.05-1.43.41-5.21,2.58-6.6C25.79,96.76,25.9,94.5,24.87,94.3Z"/><path class="cls-9" d="M19.29,103.78c1.12.74,1.28,2.7,1.29,3.45l0,.17a13.94,13.94,0,0,0-.53,1.37.12.12,0,0,0,.08.15.11.11,0,0,0,.15-.08,17.15,17.15,0,0,1,1.53-3.3h0l.26-.11c.74-.1,2.7-.25,3.61.73,1.66,1.8,2.83,1.65,2.84,1.11,0-.76-1.63-3.38-5.86-2.1a4.78,4.78,0,0,0-.77.2c.33-.56.69-1.14,1.07-1.71l.3-.08a3.32,3.32,0,0,1,2.6.65c1.4,1.51,2.38,1.39,2.39.94,0-.66-1.43-3-5.17-1.69.45-.67.93-1.34,1.43-2l.3-.08a2.73,2.73,0,0,1,2.11.56c1.17,1.27,2,1.16,2,.78,0-.54-1.19-2.44-4.28-1.43.51-.65,1-1.27,1.57-1.85l.24,0a2,2,0,0,1,1.48.42c.88,1,1.5.88,1.5.59s-.85-1.77-3.06-1.12a16,16,0,0,1,1.79-1.67l.31-.07a1.43,1.43,0,0,1,1.06.34c.69.74,1.17.68,1.18.46S30,97,28.36,97.48a5.24,5.24,0,0,0,.5-.82,1.45,1.45,0,0,0,0-2c-.2-.12-.5.26-.23,1.24a1.82,1.82,0,0,1-.48,1.36,12.5,12.5,0,0,0-1.28,1.11c0-.06,0-.13,0-.19.24-1.82-.94-2.32-1.25-2.27s-.4.4.64,1.09c.46.31.53,1.11.54,1.43-.33.31-.65.65-1,1h0c-.19.2-.37.41-.56.63a1.48,1.48,0,0,0,0-.21c.32-2.32-1.19-3-1.59-2.88s-.45.54.82,1.39c.58.38.67,1.37.68,1.79-.34.41-.68.83-1,1.27l-.06,0h.05c-.23.3-.46.61-.68.92a3.38,3.38,0,0,0,0-1.26c.05-2.51-1.69-3.22-2.17-3.13s-.35.89,1.09,1.85c1,.65,1,2.68,1,2.69-.25.35-.49.7-.72,1.06l-.12,0,.1,0c-.25.39-.49.77-.72,1.15a4.56,4.56,0,0,0,0-.54c.49-3.68-1.9-4.7-2.53-4.58-.45.08-.42,1.07,1.3,2.2.94.63,1.07,2.28,1.09,2.9,0,.09,0,.16-.05.24v0c-.4.69-.76,1.35-1.06,2,0-.13,0-.26,0-.4.59-4.39-2.26-5.59-3-5.45C17.21,101.26,17.25,102.43,19.29,103.78Z"/><path class="cls-12" d="M19.91,109s3.23-4.57,6.32-4.58a11.18,11.18,0,0,1,5.83,2s-3.62,2-5,1.79S20.7,108.17,19.91,109Z"/><path class="cls-7" d="M20,109.15c.63-.36,1.28-.7,1.93-1s1.33-.61,2-.86a15.54,15.54,0,0,1,2.07-.66,7.86,7.86,0,0,1,2.15-.26.05.05,0,0,0,.07,0,.07.07,0,0,0-.06-.07,8.13,8.13,0,0,0-2.2.2,15.52,15.52,0,0,0-2.12.6c-.69.24-1.38.52-2.05.81s-1.33.62-2,1a.18.18,0,0,0-.07.25.18.18,0,0,0,.25.08Z"/><path class="cls-12" d="M19.93,109.16s-1.23-3.43-3.17-4a7.33,7.33,0,0,0-4,.24s1.92,1.92,2.84,2S19.58,108.51,19.93,109.16Z"/><path class="cls-7" d="M19.85,109.25c-.33-.33-.68-.66-1-1s-.73-.61-1.11-.89a10.6,10.6,0,0,0-1.19-.78,5.46,5.46,0,0,0-1.3-.53s0,0,0,0,0,0,0,0a5.37,5.37,0,0,1,1.35.51,9.19,9.19,0,0,1,1.23.75c.39.27.77.56,1.14.86s.73.62,1.08,1a.12.12,0,0,1,0,.17.14.14,0,0,1-.18,0Z"/><path class="cls-8" d="M140,87.69a3.11,3.11,0,0,1-1.8,1.94c-2.12,1,1.8,2.42.53,4.93s-2.53,2.87-2.31,4.51,2.65,2.85-.52,10.94c.11.86-2.37,1.21-2.49.33-3.58-4.31-5.66-7.82-3.55-9.52A3,3,0,0,0,131,97.5c-.15-.83-.49-1.75-.79-2.79-.76-2.62,1.9-3.2,3.48-4.28s-1.11-4.24,1-5.06,3.39-1.53,4.59-.09A2.75,2.75,0,0,1,140,87.69Z"/><path class="cls-7" d="M134.75,111.13a.3.3,0,0,1-.33-.22c-.18-.6-4.24-14.89,2-23.21a.31.31,0,0,1,.43-.06.31.31,0,0,1,.06.43c-6.09,8.08-2,22.53-1.94,22.67a.32.32,0,0,1-.21.38Z"/><path class="cls-13" d="M140,87.69a3.11,3.11,0,0,1-1.8,1.94c-2.12,1,1.8,2.42.53,4.93s-2.53,2.87-2.31,4.51,2.65,2.85-.52,10.94c.11.86-2.37,1.21-2.49.33-3.58-4.31-5.66-7.82-3.55-9.52A3,3,0,0,0,131,97.5l1.16-.41a4.69,4.69,0,0,0,2.72-2c.51-1,.3-2.25.48-3.39a5,5,0,0,1,2.57-3.54A4.7,4.7,0,0,1,140,87.69Z"/><path class="cls-11" d="M154.9,95.31A14.12,14.12,0,0,1,153,97.65c-2.53,2.66-3-.22-2.72,1.55s-4.21-.2-4.78,1.14,3.1,2.83,1.94,5.52-6.6-.1-11.48,2.13c-1.22.52-1.7.15-1.74-.74A12.32,12.32,0,0,1,136.6,101c1.85-2.27.4-4.88.81-7.22a3.94,3.94,0,0,1,.37-1.13c2.23-4.34,3,3.91,4.74,3.07s-1.54-4.44-.09-6.21,2.32,1,5.88-.11S152.44,85,154.68,85s-3.12,4.66-1.46,4.06,1.23,1.09,0,2.36-3.08,2,.11,1.73C155.52,93,155.76,93.88,154.9,95.31Z"/><path class="cls-14" d="M139,95.29c.17,0,.38.15.48.58a6.54,6.54,0,0,1,.14,1.65c0,.16,0,.32,0,.48a4.44,4.44,0,0,0,0,1.09,3.15,3.15,0,0,0,.95,1.78,8.31,8.31,0,0,0,1-.4,6.9,6.9,0,0,0,3-3.13,15.58,15.58,0,0,0,.71-1.62,2.8,2.8,0,0,1-.69-.89,3,3,0,0,1-.07-1.56c0-.12,0-.24,0-.36a5.16,5.16,0,0,0-.07-1.52c0-.2-.14-.44-.28-.45a.19.19,0,0,1-.19-.2.19.19,0,0,1,.2-.2c.33,0,.57.3.66.77a5.31,5.31,0,0,1,.08,1.64c0,.12,0,.25,0,.38a2.56,2.56,0,0,0,0,1.35,2.2,2.2,0,0,0,.48.63l.42-1.22.32-.93a4.5,4.5,0,0,1,.64-1.3,4.62,4.62,0,0,1,2.76-1.35.21.21,0,0,1,.24.16.2.2,0,0,1-.15.24,4.34,4.34,0,0,0-2.53,1.2,3.77,3.77,0,0,0-.58,1.19c-.11.3-.21.61-.32.92-.24.7-.49,1.42-.77,2.12a1.5,1.5,0,0,0,1.17-.09,4.56,4.56,0,0,0,.78-.57l.17-.15a3.06,3.06,0,0,1,1.14-.65,2.28,2.28,0,0,1,1.28.07,3,3,0,0,1,.42.18,1.29,1.29,0,0,0,.57.21.2.2,0,0,1,.21.19.19.19,0,0,1-.19.21,1.56,1.56,0,0,1-.77-.25l-.35-.15a1.91,1.91,0,0,0-1.07-.07,2.55,2.55,0,0,0-1,.57l-.17.15a4.37,4.37,0,0,1-.85.61,1.91,1.91,0,0,1-1.52.12q-.18.41-.39.81a7.26,7.26,0,0,1-3.14,3.3,9.45,9.45,0,0,1-1.15.45l-.06,0a6.5,6.5,0,0,0-1.62.75,4.09,4.09,0,0,0-.44.39,4.39,4.39,0,0,1,1,.45l.2.12a5.75,5.75,0,0,0,3.5.81l.54-.09a3.59,3.59,0,0,1,1.46-.1.2.2,0,0,1-.08.4,3.23,3.23,0,0,0-1.3.09,5.43,5.43,0,0,1-3.52-.37c-.3-.13-.56-.26-.8-.39l-.2-.12a3.52,3.52,0,0,0-1.06-.46h0l-.43.53-1.39,1.79a8.07,8.07,0,0,0-.88,1.28,4.27,4.27,0,0,0-.16,3.63.2.2,0,0,1-.11.26.22.22,0,0,1-.16,0,.22.22,0,0,1-.1-.11,4.71,4.71,0,0,1,.17-4,9.9,9.9,0,0,1,.92-1.34l1.4-1.79a6.44,6.44,0,0,1,1.24-1.32,5.57,5.57,0,0,1,1.45-.71,3.59,3.59,0,0,1-.92-1.88,5.07,5.07,0,0,1,0-1.17c0-.16,0-.32,0-.47a5.66,5.66,0,0,0-.12-1.54c0-.19-.1-.27-.15-.27a.21.21,0,0,1-.17-.23A.2.2,0,0,1,139,95.29Z"/><path class="cls-15" d="M154.9,95.31A14.12,14.12,0,0,1,153,97.65c-2.53,2.66-3-.22-2.72,1.55s-4.21-.2-4.78,1.14,3.1,2.83,1.94,5.52-6.6-.1-11.48,2.13c-1.22.52-1.7.15-1.74-.74A12.32,12.32,0,0,1,136.6,101c1.85-2.27.4-4.88.81-7.22a3.62,3.62,0,0,1,1,.58c.62.53,1,1.25,1.62,1.82a5.14,5.14,0,0,0,3.47,1.43,6.16,6.16,0,0,0,3.61-1.16c.56-.4,1-.89,1.61-1.28a5.2,5.2,0,0,1,4.55-.8A5.46,5.46,0,0,1,154.9,95.31Z"/><path class="cls-9" d="M147.8,104.3a1.82,1.82,0,0,1-1.59-.06c-1.29-.56-.39,1.77-2,2.17s-2.3,0-3,.71-.26,2.32-5.18,4c-.35.39-1.48-.61-1.12-1,.56-3.31,1.35-5.63,2.94-5.33a1.82,1.82,0,0,0,2-.77,17.3,17.3,0,0,0,1-1.45c.9-1.37,2.19-.39,3.3-.09s1.5-2.16,2.72-1.5,2,.95,1.83,2.06A1.6,1.6,0,0,1,147.8,104.3Z"/><path class="cls-7" d="M135.09,111.09a.18.18,0,0,1,0-.24c.2-.32,5.12-7.75,11.36-8.14a.19.19,0,0,1,.2.17.2.2,0,0,1-.17.2c-6.06.38-11,7.89-11.08,8a.18.18,0,0,1-.26,0Z"/><path class="cls-16" d="M147.8,104.3a1.82,1.82,0,0,1-1.59-.06c-1.29-.56-.39,1.77-2,2.17s-2.3,0-3,.71-.26,2.32-5.18,4c-.35.39-1.48-.61-1.12-1,.56-3.31,1.35-5.63,2.94-5.33a1.82,1.82,0,0,0,2-.77l.65.37a2.85,2.85,0,0,0,1.95.47c.67-.17,1.14-.75,1.73-1.1a3,3,0,0,1,2.62-.22A2.73,2.73,0,0,1,147.8,104.3Z"/><g class="cls-17"><path d="M123.55,94.58a.23.23,0,0,0,0-.34l-.5-.5a.15.15,0,0,0,0-.23l-1.46-1.46-1.16-1.17.23-.23a.2.2,0,0,0,.06-.14.18.18,0,0,0-.06-.14.19.19,0,0,0-.28,0l-.15.15-.63-.63-.12-.08a.51.51,0,0,0-.76.45.47.47,0,0,0,.15.35l.63.63-.15.16a.19.19,0,0,0,0,.28.19.19,0,0,0,.28,0l.23-.24.86.86,1.77,1.77a.15.15,0,0,0,.23,0l.5.51A.24.24,0,0,0,123.55,94.58Z"/><path d="M123.67,96.16s-.58.71-.58,1a.59.59,0,1,0,1.17,0C124.26,96.87,123.67,96.16,123.67,96.16Z"/></g><path class="cls-6" d="M105.77,108.48h3.55a0,0,0,0,1,0,0v3.91a1.77,1.77,0,0,1-1.77,1.77h0a1.77,1.77,0,0,1-1.77-1.77v-3.91A0,0,0,0,1,105.77,108.48Z" transform="translate(252.55 57.15) rotate(113.52)"/><path class="cls-9" d="M112.76,110.75h0a1.77,1.77,0,0,1,1.77,1.77v3.91a0,0,0,0,1,0,0H111a0,0,0,0,1,0,0v-3.91a1.77,1.77,0,0,1,1.77-1.77Z" transform="translate(261.92 55.54) rotate(113.52)"/><path class="cls-6" d="M100.19,111.66h3.55a0,0,0,0,1,0,0v3.91a1.77,1.77,0,0,1-1.77,1.77h0a1.77,1.77,0,0,1-1.77-1.77v-3.91A0,0,0,0,1,100.19,111.66Z" transform="translate(163.58 -25.9) rotate(65.38)"/><path class="cls-9" d="M107.14,109.3h0a1.77,1.77,0,0,1,1.77,1.77V115a0,0,0,0,1,0,0h-3.55a0,0,0,0,1,0,0v-3.91A1.77,1.77,0,0,1,107.14,109.3Z" transform="translate(164.44 -31.98) rotate(65.38)"/><g class="cls-17"><path d="M80.42,16.91c.25.14.48.26.73.38l-1.07,3h-8.7L71,18.88l-2.44,6.57-2.68-9.51-3.81,4.73H60.72a4.61,4.61,0,0,1-4.25-2.81l-.37-.3-.18-.15c-.25-.23-.53-.48-.82-.77a1.46,1.46,0,0,1-.23-.21,9.15,9.15,0,0,1-.69-.7l-.24-.26c-.33-.39-.67-.79-1-1.22l-.25-.35-.18-.28-.17-.28-.17-.28c0-.1-.1-.2-.14-.3a6.91,6.91,0,0,1-.47-1.18c-.06-.21-.11-.42-.15-.62a2.45,2.45,0,0,1-.06-.34,2.15,2.15,0,0,1,0-.34,1.94,1.94,0,0,1,0-.24.41.41,0,0,1,0-.15,1.77,1.77,0,0,1,0-.23c0-1.92.88-3.1,2.17-3.42a2.14,2.14,0,0,1,.27-.09,4.37,4.37,0,0,1,.56-.09,6.09,6.09,0,0,1,3.38.72,4.61,4.61,0,0,1,1.7-.61l.42,0,.13,0a3.1,3.1,0,0,1,2.36.22.45.45,0,0,1,.12.06c1.2.73,1.82,2.46,1.09,5a8.07,8.07,0,0,1-.5,1.28l-.18.31a3.49,3.49,0,0,1-.18.31,5.46,5.46,0,0,1-.39.59,5.9,5.9,0,0,1-.43.59c-.19.25-.39.48-.59.71l-.09.1c-.15.18-.31.34-.46.51l-.24.24-.23.22-.22.22-.4.37-.52.46a1,1,0,0,1-.17.13c-.29.27-.53.44-.66.55l-.14.1-.51.08a3.82,3.82,0,0,0,3.16,1.68h1l4.56-5.67,2.43,8.62,2.48-6.64L72,19.5H79.5Z"/><path d="M86.31,19.65l-1.26,2.89L84.17,19l-1.32,7.66L81.4,17.42l.91.45.58,3.73.55-3.19c.54.25,1.07.49,1.61.71l.22.87.28-.65Z"/><path d="M85.64,81.81v-.09l-.19-1.16a2.66,2.66,0,0,0-1.26-1.85L79.9,76c0-.51.06-1,.08-1.55.09-.1.19-.2.27-.3h0c1.65-1.82,3-3.41,3.38-4.68a1.65,1.65,0,0,0-.12-.92.25.25,0,0,0,0-.07c-.8-2.06-4.14-5.26-4.14-5.26a11.09,11.09,0,0,0-3.3-.75v0a4.05,4.05,0,0,1-.53-1.58l1.31-.59a11.28,11.28,0,0,0,1-3.66,7.61,7.61,0,0,0-1.47-2.13,10.27,10.27,0,0,0-3.63-.32,3.07,3.07,0,0,0-1.58,1.64,2,2,0,0,0,.09,1.74,1.66,1.66,0,0,0,.29.3,8.66,8.66,0,0,0,.88,3.47.79.79,0,0,0,.75.28,1.15,1.15,0,0,1-.65.72.06.06,0,0,0,0,0,39.58,39.58,0,0,0-4.39.36c-1.57.81-3.49,5.31-3.91,6.2a21.71,21.71,0,0,1-5,1.92l-1.77-3.17A1.49,1.49,0,0,0,56.29,67H55a.57.57,0,0,0-.4-.2h-.46a.54.54,0,0,0-.08-.35,1.26,1.26,0,0,0-1-.6c-.27,0-.42.15-.39.37a.55.55,0,0,0,.07.23,1.32,1.32,0,0,0,.32.35h-.64c-.13,0-.2.08-.17.2H50.92c-.42,0-.59.32-.37.71l1.54,2.76,1,1.83h0c-.39.31-.66.65-.49,1.14-.13.2,1.22,1,1.42,1.09a.65.65,0,0,0,.31,0l.1.18a1.52,1.52,0,0,0,1.07.7H61l.15,0a.42.42,0,0,0,.26-.16h0a.3.3,0,0,0,0-.1,0,0,0,0,0,0,0v0a.52.52,0,0,0-.09-.36l-.14-.25-.28-.52-.44-.78-.12-.21c2.69-.44,5-.87,6.24-1.64a4.14,4.14,0,0,0,.76-.75c0,.42,0,.84-.07,1.25-.77,1.09-1.23,2-1.1,2l.43.27c.07,0,.29-.13.6-.45a26.92,26.92,0,0,0,.41,5.89h-.08A32.76,32.76,0,0,0,66,94l1.2,13.2.26.08a2.71,2.71,0,0,1-.64,1.6c-1.48.78-3.71,1.64-2.83,2.16a23,23,0,0,0,6.79-1c.3-.62,0-1.54-.46-1.56a2,2,0,0,1-.63-1.06c.19,0,.38-.1.57-.17.27-4.36.14-9.94.49-13.9a35.32,35.32,0,0,1,1.44-4.67,37.29,37.29,0,0,0,1.35,5.83L77.8,107a2.85,2.85,0,0,0,.4,0,2.32,2.32,0,0,1-.2,1.86c-1.24,1-3.18,2.23-2.23,2.57A21.27,21.27,0,0,0,82,109.18c.15-.64-.33-1.46-.77-1.39a2.21,2.21,0,0,1-.94-1.14,3.67,3.67,0,0,0,.52-.27c-.71-4.31-2.07-9.75-2.62-13.69-.07-3.16,1-7.72.83-11.94l2.49,1.56a3.16,3.16,0,0,0,2.32.41l1.35-.29,4.47,2.82a.45.45,0,0,0,.58-.1.37.37,0,0,0-.11-.53Zm-32.26-14,.17,0-.17,0ZM53,67.46a1.12,1.12,0,0,1-.05-.13.24.24,0,0,1,.26-.3.82.82,0,0,1,.65.43.3.3,0,0,1,0,.34l0,0a.29.29,0,0,1-.17,0h0a.29.29,0,0,0,.17,0h-.4A.82.82,0,0,1,53,67.46Zm27.1,3.32c0,.09-.07.19-.11.29,0-.45,0-.9-.06-1.34a1.72,1.72,0,0,1,.27.7C80.13,70.54,80.1,70.66,80.06,70.78Z"/><path d="M47.69,72.17c-.16.15-.29.27-.37.19s.15-.5-.12-.63-1,.86-1,.86l-4.1.39-5.84.56-.1-.23-2.13-4.82v-.07l0,0h0a14.64,14.64,0,0,0-4.05-1c-.05-.24-.09-.49-.12-.73a1.34,1.34,0,0,0,.27-.07c1.42-.35,1.69-2.85,1.41-4.6.62,0,1.09,0,1.09,0L35,59H29.08l-3.31,2-.16,3.32,1,1.06v.13l.21.1.55.58a4.13,4.13,0,0,1-.32,1,9.32,9.32,0,0,0-3.56.64c-2.46,1.74-.55,9.59-1.16,17.18a1.87,1.87,0,0,0,.34.25c-.6,6.26,1.14,9.23.55,11.85C22.6,100,19,112.44,19,112.44l0,0c-.11.16-.23.34-.37.58s-.31.62-.42.86l-.17-.07a1.68,1.68,0,0,0-.55,1.63c2.13.44,4.19.91,6.19,1.2.16-.7-1.64-2-2.71-2.52a2.34,2.34,0,0,1,.3-.86h.17c3.13-6.65,6.86-14.35,7.33-16.73a37,37,0,0,0,.53-4.18c.84,2.35,1.68,3.93,1.67,5.54,0,2.9-.93,15.74-.93,15.74l0,0c-.07.17-.15.38-.23.64s-.18.66-.24.91l-.17,0a1.64,1.64,0,0,0-.19,1.71c2.17,0,4.29.13,6.32.06,0-.72-2-1.68-3.19-2a2.44,2.44,0,0,1,.1-.89l.17,0c1.65-7.09,3.68-15.32,3.63-17.74a40.31,40.31,0,0,0-1.76-10.48l.06,0a36.35,36.35,0,0,0,.13-9.31c2,.34,5.07-.29,8.4-1.29,1.14-.34,2.31-.73,3.49-1.14A1.68,1.68,0,0,0,48,73.92l.19-.13h0c.65-.53.89-1.71.41-2S47.93,71.94,47.69,72.17Z"/><path d="M130.21,105.11v-4.62h.12a.65.65,0,1,0,0-1.29h-5.4a.65.65,0,1,0,0,1.29h.13v4.62l-.19.35-2.94,5.27c-.24,1.3,11.64,1.3,11.4,0Z"/><path d="M28,52.91h0l-.89,2.41c-.1.26.1.51.27.36l3-2.77H40.46c.5,0,.91-.57.91-1.29V47.75c0-.71-.41-1.29-.91-1.29H28c-.5,0-.92.58-.92,1.29v3.87C27.08,52.34,27.5,52.91,28,52.91Z"/><path d="M71.88,49V46c0-.56-.32-1-.72-1H61.31c-.4,0-.72.46-.72,1V49c0,.57.32,1,.72,1h8l2.36,2.19c.13.12.29-.08.22-.29l-.71-1.9h0C71.56,50.06,71.88,49.61,71.88,49Z"/></g><path class="cls-6" d="M109.23,114.08h3.08a0,0,0,0,1,0,0v3.39a1.54,1.54,0,0,1-1.54,1.54h0a1.54,1.54,0,0,1-1.54-1.54v-3.39A0,0,0,0,1,109.23,114.08Z" transform="translate(-6.6 226.44) rotate(-89.57)"/><path class="cls-9" d="M105.84,114h0a1.54,1.54,0,0,1,1.54,1.54V119a0,0,0,0,1,0,0H104.3a0,0,0,0,1,0,0v-3.39A1.54,1.54,0,0,1,105.84,114Z" transform="translate(-11.45 221.48) rotate(-89.57)"/><path class="cls-8" d="M78.29,23.48l-1.54-9.82-1.23,3.49h-8.7l-.37-1.43L64,22.28l-2.68-9.52L57.52,17.5H56.16a4.62,4.62,0,0,1-4.62-4.62V6.69h.82v6.19a3.8,3.8,0,0,0,3.8,3.8h1L61.69,11l2.43,8.63L66.6,13l.86,3.35h7.48l2.12-6,1.27,8.12,1.14-6.61,1.24,5,.59-1.35h5.81v.82H81.83l-1.34,3.08-.88-3.55Z"/><path class="cls-6" d="M58.92,8.23a6.88,6.88,0,0,1-.51,1.27l-.17.31-.18.31c-.13.2-.26.41-.4.6s-.28.39-.42.58-.4.49-.6.72l-.09.1-.46.5-.24.24-.22.23-.24.22-.38.36-.53.47-.16.13-.68.55-.12.09-1.1.17h0s-.08-.09-.16-.2A26.3,26.3,0,0,1,48.51,9.3a9.38,9.38,0,0,1-.39-1.07,13.43,13.43,0,0,1-.42-2A4.07,4.07,0,0,1,47.89,4a1.74,1.74,0,0,1,1-.95A1.22,1.22,0,0,1,49.15,3a3.12,3.12,0,0,1,.56-.09,6.09,6.09,0,0,1,3.38.72,4.61,4.61,0,0,1,.43.29,5.26,5.26,0,0,1,1.21-.74A4.68,4.68,0,0,1,55.21,3l.13,0C57.86,2.25,60.05,4.22,58.92,8.23Z"/><path class="cls-9" d="M57.81,8.41c-.71,2.51-3.27,4.92-4.59,6-.48.41-.8.64-.8.64h0l0,0-.17-.13c-.16-.12-.38-.31-.66-.54l-.18-.15c-.25-.22-.53-.47-.82-.75l-.23-.22c-.23-.22-.46-.46-.69-.71-.08-.09-.16-.17-.23-.26-.34-.38-.68-.79-1-1.21l-.24-.35c-.07-.09-.13-.19-.19-.28a2.61,2.61,0,0,1-.17-.28l-.16-.29a2.69,2.69,0,0,1-.16-.29A7.19,7.19,0,0,1,47,8.41c-.06-.22-.11-.42-.15-.63s0-.23-.07-.34,0-.22,0-.33l0-.25c0-.05,0-.09,0-.14s0-.16,0-.24c0-1.91.89-3.09,2.17-3.41A3.29,3.29,0,0,1,49.59,3a4.55,4.55,0,0,1,2.83,1.1,5.46,5.46,0,0,1,.67-.47A4.43,4.43,0,0,1,54.79,3l.42,0h.15C57.35,3.07,58.77,5,57.81,8.41Z"/><circle class="cls-7" cx="52.41" cy="8.29" r="3.15"/><path class="cls-6" d="M54.29,8.29a.39.39,0,0,1-.39.39H52.8v1.1a.39.39,0,0,1-.77,0V8.68h-1.1a.38.38,0,0,1-.39-.39.39.39,0,0,1,.39-.39H52V6.8a.39.39,0,1,1,.77,0V7.9h1.1A.4.4,0,0,1,54.29,8.29Z"/><path class="cls-18" d="M58.92,8.23a6.88,6.88,0,0,1-.51,1.27l-.17.31-.18.31c-.13.2-.26.41-.4.6s-.28.39-.42.58-.4.49-.6.72l-.09.1-.46.5-.24.24-.22.23-.24.22-.38.36-.53.47-.16.13-.68.55-.12.09-1.1.17h0s0,0,0,0l-.17-.13c-.16-.12-.38-.31-.66-.54l-.18-.15c-.25-.22-.53-.47-.82-.75l-.23-.22c-.23-.22-.46-.46-.69-.71-.08-.09-.16-.17-.23-.26-.34-.38-.68-.79-1-1.21l-.24-.35c-.07-.09-.13-.19-.19-.28a2.61,2.61,0,0,1-.17-.28l-.16-.29a2.69,2.69,0,0,1-.16-.29A7.19,7.19,0,0,1,47,8.41c-.06-.22-.11-.42-.15-.63s0-.23-.07-.34,0-.22,0-.33l0-.25c0-.05,0-.09,0-.14s0-.16,0-.24L47,6.37a2.81,2.81,0,0,1,.71-.15,4.18,4.18,0,0,1,1.67.19h0l.41.14.38.17h0a.61.61,0,0,1,.14.07A11.11,11.11,0,0,0,52,7.66a2.27,2.27,0,0,0,.53.12h.24A2.76,2.76,0,0,0,55,6.51a3.06,3.06,0,0,0,.4-.81,4.63,4.63,0,0,0,.08-2.31c0-.12-.08-.26-.13-.4a.08.08,0,0,0,0-.05C57.86,2.25,60.05,4.22,58.92,8.23Z"/><path class="cls-19" d="M62.85,108.31a2.73,2.73,0,0,1-.62,2.06,3.24,3.24,0,0,0,3.5-.49A2.74,2.74,0,0,1,65,108Z"/><path class="cls-7" d="M62.61,108.54a3.67,3.67,0,0,0,3.06,0c.27-4.73.15-10.78.49-15.09.77-4.16,3.78-10.27,3.78-15.68L63,78.49a38.43,38.43,0,0,0-1.58,15.73Z"/><path class="cls-6" d="M62.23,110.37c-1.48.84-3.71,1.77-2.83,2.34a21.08,21.08,0,0,0,6.79-1.14c.3-.67,0-1.67-.46-1.69A5.62,5.62,0,0,1,62.23,110.37Z"/><path class="cls-19" d="M73.62,108.27a2.67,2.67,0,0,1-.18,2.08,3.13,3.13,0,0,0,3.23-1.16,2.62,2.62,0,0,1-1.08-1.66Z"/><path class="cls-7" d="M73.24,108.29a3.69,3.69,0,0,0,3-.62c-.71-4.69-2.07-10.59-2.61-14.87-.1-4.23,1.59-10.83.49-16.13L67.47,78.8A39.56,39.56,0,0,0,69,94.72Z"/><path class="cls-6" d="M73.44,110.35c-1.24,1.1-3.18,2.43-2.22,2.79a20.35,20.35,0,0,0,6.22-2.43c.15-.7-.33-1.59-.77-1.52A5.41,5.41,0,0,1,73.44,110.35Z"/><path class="cls-20" d="M74.8,79.25c-2.43,1-5.45.87-8.71.2-1-.19-2-.43-3-.69-.94-4.36-.32-11.33.41-18.48,3.71-.57,8.71-.67,11.27.56.17,1.22.31,2.58.43,4h0A58.85,58.85,0,0,1,74.8,79.25Z"/><path class="cls-21" d="M74.8,79.25c-2.43,1-5.45.87-8.71.2.7-1.08,3.31-2.67,5.41-3.75,3.3-1.69,3.25-7.09,3.73-10.83A58.85,58.85,0,0,1,74.8,79.25Z"/><path class="cls-19" d="M67.93,59.84c.81-.41.72-1.13.94-2.51l2-.37a5.43,5.43,0,0,0,.59,3C71.5,61.94,67.23,61.92,67.93,59.84Z"/><path class="cls-19" d="M67.83,58.76c.46.84,2.59-.17,3.84-.86l.43-5.13H67A11.38,11.38,0,0,0,67.83,58.76Z"/><path class="cls-20" d="M63.53,60.28C62,61.16,60,66,59.62,67c-1.65,1.18-5.49,2.2-9.28,3.5l.46,1.73c4.67-1,9.25-1.38,11.24-2.71,1.54-1.18,2.48-4.66,2.48-4.66Z"/><path class="cls-22" d="M66.66,54.67a2,2,0,0,0,2.85.32c.72-.48.39,1.32,0,1.69l.42.16.52-.91c.36-.06.59.1.53.73l-.62.83a1.2,1.2,0,0,0,.45.86l1.47-.72a13,13,0,0,0,1-4,8.33,8.33,0,0,0-1.46-2.31A9.5,9.5,0,0,0,68.15,51a3.21,3.21,0,0,0-1.58,1.77A2.32,2.32,0,0,0,66.66,54.67Z"/><path class="cls-8" d="M52.89,65.65,55.14,70l.23.43.3.59.25.49.44.85.28.56.14.27a.63.63,0,0,1,.09.4s0,0,0,0a0,0,0,0,1,0,0,.56.56,0,0,1,0,.12h0a.48.48,0,0,1-.26.17H51a1.49,1.49,0,0,1-1.07-.77l-2.35-4.57-1.54-3c-.22-.43-.05-.77.37-.77h5.37A1.45,1.45,0,0,1,52.89,65.65Z"/><path class="cls-23" d="M49.22,64.66a.24.24,0,0,1-.17.06.49.49,0,0,1-.23-.06Z"/><path class="cls-6" d="M50,64.66h-.46a.61.61,0,0,0-.08-.37,1.26,1.26,0,0,0-1-.66.35.35,0,0,0-.39.41.68.68,0,0,0,.07.25,1.26,1.26,0,0,0,.32.37h-.64a.16.16,0,0,0-.17.22.16.16,0,0,0,0,.09.57.57,0,0,0,.46.31h2.16c.17,0,.24-.14.15-.31a.47.47,0,0,0-.06-.09A.55.55,0,0,0,50,64.66Zm-1.41-.8a.82.82,0,0,1,.65.43.3.3,0,0,1,0,.33l0,0a.28.28,0,0,1-.18.06.49.49,0,0,1-.23-.06.85.85,0,0,1-.42-.37,1.21,1.21,0,0,1,0-.14A.23.23,0,0,1,48.61,63.86Z"/><rect class="cls-6" x="64" y="69.37" width="1.81" height="2.14" transform="translate(-29.87 84.28) rotate(-55.65)"/><path class="cls-8" d="M65.06,73.42l2.68-3.91,11.88,8.12a2.93,2.93,0,0,1,1.26,2l.19,1.26,0,.09,4.47,3.06a.42.42,0,0,1,.11.57.43.43,0,0,1-.58.12l-4.47-3.07L79.27,82A3,3,0,0,1,77,81.54Z"/><path class="cls-8" d="M64.34,72.92,67,69a.88.88,0,1,1,1.45,1l-2.68,3.92a.88.88,0,1,1-1.45-1Z"/><path class="cls-9" d="M63.1,69.51l.15-.21c1-1.53,2-2.69,2.18-2.59l.43.3c.14.09-.34,1-1.11,2.22-.1.16-.2.33-.31.49l-.18.27c-.18.26-.35.51-.53.74-.83,1.16-1.53,1.94-1.67,1.85l-.43-.3C61.48,72.18,62.12,71,63.1,69.51Z"/><path class="cls-6" d="M72.11,72.5l7.51,5.13a2.93,2.93,0,0,1,1.26,2l.19,1.26,0,.09,4.47,3.06a.42.42,0,0,1,.11.57.43.43,0,0,1-.58.12l-4.47-3.07L79.27,82A3,3,0,0,1,77,81.54L70.7,77.27A3.33,3.33,0,0,0,71.58,76a2.14,2.14,0,0,0,.13-.38C72.06,74.3,71.32,73.11,72.11,72.5Z"/><path class="cls-24" d="M72.55,73.08a.38.38,0,0,1,.15-.18l6.92,4.73a2.93,2.93,0,0,1,1.26,2l.19,1.26a4.61,4.61,0,0,1-.9-.23,1.62,1.62,0,0,1-1.12-1c-.09-.36,0-.75-.1-1.1a1.57,1.57,0,0,0-.55-.7,5.45,5.45,0,0,0-2-1c-.53-.15-1.07-.2-1.6-.33a2.76,2.76,0,0,1-1.43-.75,4,4,0,0,1-.73-1.5A1.51,1.51,0,0,1,72.55,73.08Z"/><path class="cls-25" d="M63.1,69.51a4.22,4.22,0,0,1,1.06.13l.28.08a5.68,5.68,0,0,1,1.57.75l.11.08a1.82,1.82,0,0,1,.53.54s0,0,0,0a2.66,2.66,0,0,1,.26.78,1.68,1.68,0,0,0,.07.24,5.39,5.39,0,0,0,.59,1.32,3.62,3.62,0,0,0,.52.65c.77.71,1.91.82,2.8,1.37a3.91,3.91,0,0,1,.67.56,1.45,1.45,0,0,1,.22.21,3.74,3.74,0,0,1,.84,1.49,2.38,2.38,0,0,1,0,.89l-6.9-4.71a.88.88,0,1,1-1.45-1l.82-1.21-1.43-1c-.83,1.16-1.53,1.94-1.67,1.85l-.43-.3C61.48,72.18,62.12,71,63.1,69.51Z"/><path class="cls-20" d="M79.08,67.63c-.4,1.38-1.73,3.1-3.38,5.07h0c-.55.67-1.14,1.38-1.75,2.1h0c-.44.53-.89,1.07-1.33,1.63-.12.16-.26.32-.38.49l-.13-.09-.25-.17-.27-.2L70.89,76h0l-.13-.08.1-.17c.4-.66.8-1.31,1.2-1.94h0a36.68,36.68,0,0,0,3.45-6.18c0-.13.07-.24.11-.35-.09-1.06-2.36-3-2.71-4.55l1.9-1.87s3.34,3.48,4.14,5.71a.31.31,0,0,1,0,.08A1.93,1.93,0,0,1,79.08,67.63Z"/><path class="cls-19" d="M70.88,76c-.53.13-.72,0-1.12.08-.14.12-.21.3,0,.39l.45.28a1.35,1.35,0,0,1-.81-.35c.3,1,.6,1.74,1.62,2a1.58,1.58,0,0,0,1.19-1.4Z"/><path class="cls-19" d="M48.54,70.63a1.11,1.11,0,0,0-.49,1.23c-.13.23,1.22,1.15,1.42,1.2.52.11,1.17-.65.89-1C50.22,71.35,49.51,70.93,48.54,70.63Z"/><path class="cls-19" d="M16.73,115.19a2.65,2.65,0,0,0-.33,1.18c0,.67-3,.11-3,.11a12.77,12.77,0,0,1,.68-1.55,4.72,4.72,0,0,1,.79-1.21Z"/><path class="cls-7" d="M18.34,83c-1.14,8.09,1,11.62.34,14.71s-4.25,16.57-4.25,16.57a2.78,2.78,0,0,0,2.47.93C20,108,23.77,99.6,24.24,97a47.3,47.3,0,0,0,.31-13.37Z"/><path class="cls-6" d="M13.5,115.78a1.93,1.93,0,0,0-.55,1.78c2.13.47,4.19,1,6.19,1.3.16-.77-1.65-2.2-2.72-2.75A3.43,3.43,0,0,1,13.5,115.78Z"/><path class="cls-19" d="M27.94,116.05a2.64,2.64,0,0,0-.08,1.22c.12.66-2.91.7-2.91.7a16.06,16.06,0,0,1,.36-1.66,5.38,5.38,0,0,1,.54-1.34Z"/><path class="cls-7" d="M23.2,84.13c.48,8.16,3.25,11.21,3.23,14.36s-.93,17.09-.93,17.09a2.81,2.81,0,0,0,2.61.43c1.65-7.7,3.68-16.62,3.63-19.25a46.88,46.88,0,0,0-2.31-13.17Z"/><path class="cls-6" d="M24.9,117.26a1.9,1.9,0,0,0-.19,1.85c2.17,0,4.29.15,6.32.07,0-.78-2.05-1.84-3.21-2.16A3.4,3.4,0,0,1,24.9,117.26Z"/><path class="cls-26" d="M17.79,84.54c1.55,1.59,9.91,2.16,12.25.82.86-4.29,0-11.53-.52-18.9C26.56,65,21,64.77,19,65.89,16.49,67.78,18.4,76.3,17.79,84.54Z"/><path class="cls-19" d="M22.31,65.63A5.92,5.92,0,0,0,23,62.74h2.3A9.8,9.8,0,0,0,25.57,66C25.33,66.41,22.53,66.23,22.31,65.63Z"/><path class="cls-19" d="M22.07,63.32c1.34.6,2.29,1.68,3.5,1.16,1.72-.46,1.76-4.32,1.17-6.05l-4.67-.54Z"/><path class="cls-22" d="M21.05,62l2.28,2.6,1.77-2.18L23.9,61.2l.55-.74.65.81.43-.49L25.2,59.4a22.38,22.38,0,0,0,2.87.07l2.33-3.2H24.52l-3.3,2.15Z"/><path class="cls-26" d="M42.06,72.62c-1.18.44-2.35.87-3.49,1.24-3.37,1.1-6.46,1.78-8.46,1.39A3.36,3.36,0,0,1,28.73,74a20,20,0,0,1-2.89-5.24l3.64-2.34,2.17,5.34.1.24,5.85-.6L41.69,71Z"/><path class="cls-19" d="M43.6,72.28v0l-.19.14a1.62,1.62,0,0,1-1.35.18L41.69,71s.7-1.08,1-.93-.1.48.12.69.21,0,.37-.21.55-.59.88-.41C44.49,70.42,44.25,71.71,43.6,72.28Z"/><path class="cls-19" d="M42.06,72.62c-1.18.44-2.35.87-3.49,1.24-3.37,1.1-6.46,1.78-8.46,1.39A3.36,3.36,0,0,1,28.73,74a8.44,8.44,0,0,0,2.92-2.24l.1.24,5.85-.6L41.69,71Z"/><path class="cls-6" d="M43.6,72.28v0l-.19.14a1.62,1.62,0,0,1-1.35.18c-1.18.44-2.35.87-3.49,1.24a15.87,15.87,0,0,1-1-2.44L41.69,71s.7-1.08,1-.93-.1.48.12.69.21,0,.37-.21A4.78,4.78,0,0,1,43.6,72.28Z"/><path class="cls-8" d="M128.77,112.38c.25,1.42-11.64,1.42-11.39,0l2.93-5.71.19-.38v-6.2h5.15v6.2Z"/><path class="cls-6" d="M126.47,100.57a.7.7,0,0,1-.69.7h-5.41a.7.7,0,1,1,0-1.4h5.41A.69.69,0,0,1,126.47,100.57Z"/><path class="cls-9" d="M128.77,112.38c.25,1.42-11.64,1.42-11.39,0l2.93-5.71.19-.38v-1.47a4.54,4.54,0,0,1,3.11-1,4.43,4.43,0,0,0,2-.53v3.05Z"/><path class="cls-27" d="M128.77,112.38c.25,1.42-11.64,1.42-11.39,0l2.93-5.71a3.08,3.08,0,0,0,2.15.82,2,2,0,0,0,1.38-1.81,6.53,6.53,0,0,0-.23-1.91c0-.17-.08-.32-.11-.49a3.91,3.91,0,0,1,0-2,1.8,1.8,0,0,1,.16-.38,3.17,3.17,0,0,1,.67-.8l.07-.06a1.56,1.56,0,0,1,.2-.16h1.18a.7.7,0,0,1,0,1.4h-.13v5Z"/><path class="cls-28" d="M22.52,44.57v3.88c0,.72.42,1.29.92,1.29h0l-.89,2.41c-.1.25.1.51.27.36l3-2.77H35.9c.5,0,.91-.57.91-1.29V44.57c0-.7-.41-1.29-.91-1.29H23.44C22.94,43.28,22.52,43.87,22.52,44.57Z"/><rect class="cls-7" x="24.45" y="45.07" width="3.31" height="0.72" rx="0.36" transform="translate(52.22 90.85) rotate(-180)"/><rect class="cls-7" x="24.45" y="46.72" width="9.21" height="0.72" rx="0.36" transform="translate(58.12 94.16) rotate(-180)"/><path class="cls-28" d="M67.32,42.8v3.07c0,.56-.32,1-.72,1h0l.71,1.9c.07.2-.08.4-.22.29l-2.36-2.19h-8c-.4,0-.72-.46-.72-1V42.8c0-.55.32-1,.72-1H66.6C67,41.78,67.32,42.25,67.32,42.8Z"/><rect class="cls-7" x="60.4" y="43.19" width="2.09" height="0.57" rx="0.28"/><rect class="cls-7" x="60.4" y="44.5" width="5.81" height="0.57" rx="0.28"/><polygon class="cls-6" points="58.99 44.06 58.99 44.65 58.24 44.65 58.24 45.39 57.67 45.39 57.67 44.65 56.92 44.65 56.92 44.06 57.67 44.06 57.67 43.32 58.24 43.32 58.24 44.06 58.99 44.06"/><path class="cls-9" d="M118.26,91l.86.86,1.77,1.77a.17.17,0,0,0,.23,0l.51.5a.23.23,0,0,0,.33-.33l-.51-.5a.15.15,0,0,0,0-.23L120,91.61l-1.17-1.17-.46.46Z"/><path class="cls-6" d="M117.69,91.1a.2.2,0,0,0,.06.14.19.19,0,0,0,.28,0l.23-.24.11-.1.46-.46.23-.23a.2.2,0,0,0,.06-.14.18.18,0,0,0-.06-.14.19.19,0,0,0-.28,0l-.15.15-.59.59-.14.13-.15.16A.2.2,0,0,0,117.69,91.1Z"/><path class="cls-6" d="M117.13,89.81a.46.46,0,0,0,.15.36l.62.63.14-.13.59-.59-.63-.63-.12-.08a.5.5,0,0,0-.6.08A.47.47,0,0,0,117.13,89.81Z"/><path class="cls-6" d="M119.12,91.86l1.77,1.77a.17.17,0,0,0,.23,0l.51.5a.23.23,0,0,0,.33-.33l-.51-.5a.15.15,0,0,0,0-.23L120,91.61c-.3.09-.66-.11-.84.19Z"/><path class="cls-29" d="M117.28,90.17l.62.63-.15.16a.19.19,0,0,0,0,.28.19.19,0,0,0,.28,0l.23-.24.86.86,1.77,1.77a.17.17,0,0,0,.23,0l.51.5a.23.23,0,0,0,.33-.33l-.51-.5a.15.15,0,0,0,0-.23L120,91.61l-.47-.47a1.08,1.08,0,0,1-.18,0,2.36,2.36,0,0,1-1-.24,1.18,1.18,0,0,1-.19-.11l-.14-.12a.55.55,0,0,1-.12-.21,1.39,1.39,0,0,1,0-.57,1,1,0,0,0-.08-.52.5.5,0,0,0-.6.08.47.47,0,0,0-.15.36A.46.46,0,0,0,117.28,90.17Z"/><path class="cls-6" d="M121.49,96.75a.59.59,0,1,0,1.17,0c0-.32-.59-1-.59-1S121.49,96.43,121.49,96.75Z"/></g></g></g></g></svg>